<?xml version="1.0" encoding="UTF-8"?>
<svg xmlns="http://www.w3.org/2000/svg" xmlns:xlink="http://www.w3.org/1999/xlink" width="640" height="360" viewBox="0 0 640 360">
<defs>
<filter id="filter-remove-color" x="0%" y="0%" width="100%" height="100%">
<feColorMatrix color-interpolation-filters="sRGB" values="0 0 0 0 1 0 0 0 0 1 0 0 0 0 1 0 0 0 1 0" />
</filter>
<g>
<g id="glyph-0-0">
<path d="M 16.054688 -19.289062 L 16.054688 -15.875 L 10.285156 -15.875 L 10.285156 0 L 6.230469 0 L 6.230469 -15.875 L 0.433594 -15.875 L 0.433594 -19.289062 Z M 16.054688 -19.289062 "/>
</g>
<g id="glyph-0-1">
<path d="M 14.628906 -8.375 L 14.628906 0 L 10.820312 0 L 10.820312 -8.675781 C 10.820312 -9.445312 10.691406 -10.0625 10.429688 -10.535156 C 10.089844 -11.199219 9.445312 -11.527344 8.492188 -11.527344 C 7.507812 -11.527344 6.757812 -11.199219 6.25 -10.539062 C 5.738281 -9.882812 5.484375 -8.941406 5.484375 -7.71875 L 5.484375 0 L 1.765625 0 L 1.765625 -19.222656 L 5.484375 -19.222656 L 5.484375 -12.40625 C 6.023438 -13.234375 6.648438 -13.8125 7.359375 -14.140625 C 8.070312 -14.46875 8.820312 -14.628906 9.605469 -14.628906 C 10.484375 -14.628906 11.285156 -14.476562 12.007812 -14.171875 C 12.726562 -13.867188 13.316406 -13.398438 13.78125 -12.773438 C 14.171875 -12.238281 14.410156 -11.691406 14.5 -11.128906 C 14.585938 -10.566406 14.628906 -9.648438 14.628906 -8.375 Z M 14.628906 -8.375 "/>
</g>
<g id="glyph-0-2">
<path d="M 13.949219 -4.1875 C 13.851562 -3.339844 13.414062 -2.480469 12.628906 -1.609375 C 11.40625 -0.222656 9.695312 0.472656 7.5 0.472656 C 5.683594 0.472656 4.082031 -0.113281 2.695312 -1.28125 C 1.308594 -2.449219 0.613281 -4.351562 0.613281 -6.988281 C 0.613281 -9.457031 1.242188 -11.351562 2.492188 -12.667969 C 3.746094 -13.984375 5.371094 -14.644531 7.367188 -14.644531 C 8.554688 -14.644531 9.621094 -14.421875 10.574219 -13.976562 C 11.523438 -13.53125 12.308594 -12.828125 12.929688 -11.867188 C 13.488281 -11.023438 13.847656 -10.042969 14.015625 -8.925781 C 14.109375 -8.269531 14.148438 -7.328125 14.132812 -6.097656 L 4.371094 -6.097656 C 4.421875 -4.667969 4.871094 -3.664062 5.71875 -3.089844 C 6.234375 -2.730469 6.851562 -2.550781 7.578125 -2.550781 C 8.34375 -2.550781 8.96875 -2.769531 9.449219 -3.207031 C 9.710938 -3.441406 9.941406 -3.769531 10.140625 -4.1875 Z M 10.257812 -8.558594 C 10.199219 -9.542969 9.898438 -10.292969 9.363281 -10.800781 C 8.828125 -11.3125 8.160156 -11.566406 7.367188 -11.566406 C 6.503906 -11.566406 5.835938 -11.296875 5.359375 -10.757812 C 4.882812 -10.214844 4.585938 -9.484375 4.460938 -8.558594 Z M 10.257812 -8.558594 "/>
</g>
<g id="glyph-0-3">
</g>
<g id="glyph-0-4">
<path d="M 13.6875 -12.734375 C 14.839844 -11.503906 15.414062 -9.695312 15.414062 -7.316406 C 15.414062 -4.804688 14.851562 -2.886719 13.71875 -1.570312 C 12.589844 -0.253906 11.136719 0.40625 9.355469 0.40625 C 8.222656 0.40625 7.28125 0.121094 6.53125 -0.445312 C 6.121094 -0.757812 5.71875 -1.21875 5.324219 -1.820312 L 5.324219 5.613281 L 1.636719 5.613281 L 1.636719 -14.261719 L 5.207031 -14.261719 L 5.207031 -12.15625 C 5.609375 -12.777344 6.035156 -13.265625 6.492188 -13.621094 C 7.320312 -14.257812 8.304688 -14.578125 9.449219 -14.578125 C 11.113281 -14.578125 12.527344 -13.960938 13.6875 -12.734375 Z M 11.566406 -7.132812 C 11.566406 -8.230469 11.316406 -9.203125 10.816406 -10.050781 C 10.3125 -10.894531 9.5 -11.320312 8.375 -11.320312 C 7.023438 -11.320312 6.09375 -10.679688 5.585938 -9.394531 C 5.324219 -8.714844 5.195312 -7.851562 5.195312 -6.804688 C 5.195312 -5.148438 5.636719 -3.984375 6.515625 -3.3125 C 7.039062 -2.917969 7.660156 -2.722656 8.375 -2.722656 C 9.414062 -2.722656 10.203125 -3.125 10.75 -3.925781 C 11.296875 -4.726562 11.566406 -5.796875 11.566406 -7.132812 Z M 11.566406 -7.132812 "/>
</g>
<g id="glyph-0-5">
<path d="M 2.277344 -12.71875 C 3.261719 -13.976562 4.957031 -14.605469 7.355469 -14.605469 C 8.917969 -14.605469 10.304688 -14.292969 11.515625 -13.675781 C 12.726562 -13.054688 13.335938 -11.886719 13.335938 -10.167969 L 13.335938 -3.625 C 13.335938 -3.171875 13.34375 -2.621094 13.359375 -1.976562 C 13.386719 -1.488281 13.460938 -1.15625 13.582031 -0.980469 C 13.703125 -0.804688 13.886719 -0.664062 14.132812 -0.550781 L 14.132812 0 L 10.074219 0 C 9.960938 -0.289062 9.882812 -0.558594 9.839844 -0.8125 C 9.796875 -1.066406 9.761719 -1.351562 9.734375 -1.675781 C 9.21875 -1.117188 8.628906 -0.640625 7.957031 -0.25 C 7.152344 0.214844 6.246094 0.445312 5.234375 0.445312 C 3.941406 0.445312 2.875 0.078125 2.035156 -0.660156 C 1.191406 -1.398438 0.773438 -2.441406 0.773438 -3.792969 C 0.773438 -5.546875 1.449219 -6.816406 2.800781 -7.601562 C 3.542969 -8.03125 4.632812 -8.335938 6.070312 -8.519531 L 7.339844 -8.675781 C 8.03125 -8.761719 8.523438 -8.871094 8.820312 -9.003906 C 9.351562 -9.230469 9.617188 -9.582031 9.617188 -10.0625 C 9.617188 -10.648438 9.414062 -11.050781 9.007812 -11.273438 C 8.601562 -11.496094 8.007812 -11.605469 7.222656 -11.605469 C 6.34375 -11.605469 5.71875 -11.390625 5.351562 -10.953125 C 5.089844 -10.628906 4.914062 -10.195312 4.828125 -9.644531 L 1.230469 -9.644531 C 1.308594 -10.890625 1.65625 -11.917969 2.277344 -12.71875 Z M 5.050781 -2.695312 C 5.398438 -2.40625 5.828125 -2.265625 6.332031 -2.265625 C 7.136719 -2.265625 7.875 -2.5 8.550781 -2.96875 C 9.226562 -3.441406 9.578125 -4.300781 9.605469 -5.546875 L 9.605469 -6.933594 C 9.371094 -6.785156 9.132812 -6.667969 8.890625 -6.574219 C 8.652344 -6.484375 8.324219 -6.398438 7.902344 -6.320312 L 7.066406 -6.164062 C 6.28125 -6.023438 5.71875 -5.855469 5.378906 -5.652344 C 4.800781 -5.3125 4.515625 -4.785156 4.515625 -4.070312 C 4.515625 -3.433594 4.695312 -2.976562 5.050781 -2.695312 Z M 5.050781 -2.695312 "/>
</g>
<g id="glyph-0-6">
<path d="M 8.910156 -10.820312 C 7.410156 -10.820312 6.402344 -10.332031 5.886719 -9.355469 C 5.601562 -8.804688 5.457031 -7.960938 5.457031 -6.816406 L 5.457031 0 L 1.699219 0 L 1.699219 -14.261719 L 5.261719 -14.261719 L 5.261719 -11.777344 C 5.835938 -12.726562 6.339844 -13.378906 6.765625 -13.726562 C 7.464844 -14.3125 8.371094 -14.605469 9.488281 -14.605469 C 9.558594 -14.605469 9.617188 -14.601562 9.664062 -14.597656 C 9.710938 -14.59375 9.820312 -14.585938 9.984375 -14.578125 L 9.984375 -10.757812 C 9.75 -10.78125 9.539062 -10.800781 9.355469 -10.808594 C 9.171875 -10.816406 9.023438 -10.820312 8.910156 -10.820312 Z M 8.910156 -10.820312 "/>
</g>
<g id="glyph-0-7">
<path d="M 8.269531 -2.65625 L 8.269531 0.128906 L 6.503906 0.195312 C 4.742188 0.257812 3.539062 -0.046875 2.890625 -0.71875 C 2.472656 -1.148438 2.265625 -1.804688 2.265625 -2.695312 L 2.265625 -11.476562 L 0.273438 -11.476562 L 0.273438 -14.132812 L 2.265625 -14.132812 L 2.265625 -18.109375 L 5.953125 -18.109375 L 5.953125 -14.132812 L 8.269531 -14.132812 L 8.269531 -11.476562 L 5.953125 -11.476562 L 5.953125 -3.9375 C 5.953125 -3.355469 6.027344 -2.988281 6.175781 -2.847656 C 6.324219 -2.703125 6.777344 -2.628906 7.539062 -2.628906 C 7.652344 -2.628906 7.769531 -2.632812 7.898438 -2.636719 C 8.023438 -2.640625 8.148438 -2.648438 8.269531 -2.65625 Z M 8.269531 -2.65625 "/>
</g>
<g id="glyph-0-8">
<path d="M 11.566406 -13.609375 C 12.683594 -12.894531 13.324219 -11.664062 13.492188 -9.917969 L 9.761719 -9.917969 C 9.710938 -10.398438 9.574219 -10.777344 9.355469 -11.058594 C 8.945312 -11.5625 8.25 -11.816406 7.261719 -11.816406 C 6.449219 -11.816406 5.875 -11.691406 5.527344 -11.4375 C 5.183594 -11.183594 5.011719 -10.886719 5.011719 -10.546875 C 5.011719 -10.121094 5.195312 -9.808594 5.5625 -9.617188 C 5.929688 -9.417969 7.222656 -9.074219 9.449219 -8.585938 C 10.929688 -8.234375 12.042969 -7.707031 12.785156 -7 C 13.519531 -6.285156 13.882812 -5.390625 13.882812 -4.316406 C 13.882812 -2.90625 13.359375 -1.75 12.308594 -0.855469 C 11.257812 0.0390625 9.632812 0.484375 7.433594 0.484375 C 5.191406 0.484375 3.535156 0.0117188 2.464844 -0.9375 C 1.398438 -1.882812 0.863281 -3.089844 0.863281 -4.554688 L 4.644531 -4.554688 C 4.722656 -3.890625 4.894531 -3.417969 5.15625 -3.140625 C 5.617188 -2.644531 6.472656 -2.394531 7.71875 -2.394531 C 8.453125 -2.394531 9.035156 -2.503906 9.46875 -2.722656 C 9.898438 -2.941406 10.117188 -3.265625 10.117188 -3.703125 C 10.117188 -4.121094 9.941406 -4.441406 9.59375 -4.660156 C 9.242188 -4.878906 7.949219 -5.25 5.707031 -5.785156 C 4.09375 -6.1875 2.953125 -6.6875 2.289062 -7.289062 C 1.625 -7.882812 1.296875 -8.738281 1.296875 -9.855469 C 1.296875 -11.171875 1.8125 -12.304688 2.847656 -13.25 C 3.878906 -14.195312 5.335938 -14.667969 7.210938 -14.667969 C 8.988281 -14.667969 10.441406 -14.316406 11.566406 -13.609375 Z M 11.566406 -13.609375 "/>
</g>
<g id="glyph-0-9">
<path d="M 14.828125 0 L 10.324219 0 L 6.910156 -6.097656 L 5.363281 -4.488281 L 5.363281 0 L 1.699219 0 L 1.699219 -19.222656 L 5.363281 -19.222656 L 5.363281 -8.832031 L 10.011719 -14.199219 L 14.628906 -14.199219 L 9.644531 -8.742188 Z M 14.828125 0 "/>
</g>
<g id="glyph-0-10">
<path d="M 5.574219 -14.261719 L 5.574219 0 L 1.792969 0 L 1.792969 -14.261719 Z M 5.574219 -19.40625 L 5.574219 -15.964844 L 1.792969 -15.964844 L 1.792969 -19.40625 Z M 5.574219 -19.40625 "/>
</g>
<g id="glyph-0-11">
<path d="M 14.722656 -19.261719 L 14.722656 0 L 11.097656 0 L 11.097656 -1.976562 C 10.566406 -1.128906 9.957031 -0.515625 9.277344 -0.128906 C 8.597656 0.253906 7.75 0.445312 6.738281 0.445312 C 5.074219 0.445312 3.671875 -0.230469 2.53125 -1.578125 C 1.394531 -2.925781 0.824219 -4.652344 0.824219 -6.765625 C 0.824219 -9.199219 1.386719 -11.113281 2.507812 -12.511719 C 3.628906 -13.90625 5.125 -14.605469 7 -14.605469 C 7.863281 -14.605469 8.632812 -14.414062 9.304688 -14.035156 C 9.976562 -13.65625 10.519531 -13.128906 10.941406 -12.457031 L 10.941406 -19.261719 Z M 4.671875 -7.039062 C 4.671875 -5.722656 4.933594 -4.671875 5.457031 -3.886719 C 5.972656 -3.09375 6.757812 -2.695312 7.8125 -2.695312 C 8.867188 -2.695312 9.671875 -3.089844 10.21875 -3.875 C 10.769531 -4.660156 11.042969 -5.675781 11.042969 -6.921875 C 11.042969 -8.667969 10.605469 -9.914062 9.722656 -10.664062 C 9.183594 -11.117188 8.554688 -11.34375 7.839844 -11.34375 C 6.75 -11.34375 5.949219 -10.933594 5.4375 -10.109375 C 4.925781 -9.285156 4.671875 -8.261719 4.671875 -7.039062 Z M 4.671875 -7.039062 "/>
</g>
<g id="glyph-0-12">
<path d="M 8.453125 -11.503906 C 7.1875 -11.503906 6.320312 -10.964844 5.847656 -9.894531 C 5.605469 -9.328125 5.484375 -8.601562 5.484375 -7.71875 L 5.484375 0 L 1.765625 0 L 1.765625 -14.238281 L 5.363281 -14.238281 L 5.363281 -12.15625 C 5.84375 -12.890625 6.296875 -13.417969 6.726562 -13.738281 C 7.492188 -14.316406 8.464844 -14.605469 9.644531 -14.605469 C 11.117188 -14.605469 12.324219 -14.21875 13.261719 -13.445312 C 14.199219 -12.671875 14.667969 -11.394531 14.667969 -9.605469 L 14.667969 0 L 10.847656 0 L 10.847656 -8.675781 C 10.847656 -9.425781 10.746094 -10 10.546875 -10.402344 C 10.179688 -11.136719 9.484375 -11.503906 8.453125 -11.503906 Z M 8.453125 -11.503906 "/>
</g>
<g id="glyph-1-0">
<path d="M 5.585938 -32.429688 L 11.699219 -6.046875 L 19.027344 -32.429688 L 23.796875 -32.429688 L 31.125 -6.046875 L 37.242188 -32.429688 L 42.054688 -32.429688 L 33.53125 0 L 28.917969 0 L 21.433594 -26.886719 L 13.90625 0 L 9.292969 0 L 0.816406 -32.429688 Z M 5.585938 -32.429688 "/>
</g>
<g id="glyph-1-1">
<path d="M 2.914062 -32.539062 L 6.886719 -32.539062 L 6.886719 -20.441406 C 7.828125 -21.632812 8.675781 -22.472656 9.425781 -22.957031 C 10.707031 -23.796875 12.304688 -24.21875 14.214844 -24.21875 C 17.644531 -24.21875 19.972656 -23.015625 21.191406 -20.617188 C 21.855469 -19.308594 22.1875 -17.492188 22.1875 -15.164062 L 22.1875 0 L 18.101562 0 L 18.101562 -14.902344 C 18.101562 -16.636719 17.882812 -17.910156 17.441406 -18.71875 C 16.71875 -20.015625 15.363281 -20.664062 13.378906 -20.664062 C 11.730469 -20.664062 10.234375 -20.097656 8.898438 -18.964844 C 7.558594 -17.832031 6.886719 -15.6875 6.886719 -12.539062 L 6.886719 0 L 2.914062 0 Z M 2.914062 -32.539062 "/>
</g>
<g id="glyph-1-2">
<path d="M 5.960938 -6.292969 C 5.960938 -5.144531 6.378906 -4.238281 7.21875 -3.578125 C 8.058594 -2.914062 9.050781 -2.582031 10.199219 -2.582031 C 11.597656 -2.582031 12.949219 -2.90625 14.261719 -3.554688 C 16.46875 -4.628906 17.570312 -6.386719 17.570312 -8.832031 L 17.570312 -12.03125 C 17.085938 -11.722656 16.460938 -11.464844 15.695312 -11.257812 C 14.929688 -11.050781 14.179688 -10.90625 13.445312 -10.816406 L 11.039062 -10.507812 C 9.597656 -10.316406 8.515625 -10.015625 7.792969 -9.601562 C 6.570312 -8.910156 5.960938 -7.808594 5.960938 -6.292969 Z M 15.585938 -14.328125 C 16.496094 -14.445312 17.109375 -14.828125 17.417969 -15.476562 C 17.59375 -15.828125 17.683594 -16.335938 17.683594 -17 C 17.683594 -18.351562 17.199219 -19.335938 16.238281 -19.945312 C 15.273438 -20.554688 13.894531 -20.863281 12.097656 -20.863281 C 10.023438 -20.863281 8.550781 -20.300781 7.683594 -19.183594 C 7.195312 -18.566406 6.878906 -17.644531 6.734375 -16.425781 L 3.023438 -16.425781 C 3.097656 -19.339844 4.042969 -21.367188 5.859375 -22.507812 C 7.679688 -23.648438 9.785156 -24.21875 12.1875 -24.21875 C 14.96875 -24.21875 17.226562 -23.6875 18.964844 -22.628906 C 20.683594 -21.570312 21.546875 -19.917969 21.546875 -17.683594 L 21.546875 -4.0625 C 21.546875 -3.648438 21.628906 -3.320312 21.800781 -3.070312 C 21.96875 -2.820312 22.324219 -2.691406 22.871094 -2.691406 C 23.046875 -2.691406 23.246094 -2.703125 23.464844 -2.726562 C 23.6875 -2.75 23.921875 -2.78125 24.171875 -2.824219 L 24.171875 0.109375 C 23.554688 0.285156 23.082031 0.398438 22.761719 0.441406 C 22.4375 0.484375 21.996094 0.507812 21.433594 0.507812 C 20.066406 0.507812 19.074219 0.0234375 18.457031 -0.949219 C 18.132812 -1.464844 17.902344 -2.191406 17.769531 -3.132812 C 16.960938 -2.074219 15.796875 -1.15625 14.28125 -0.375 C 12.765625 0.40625 11.097656 0.792969 9.273438 0.792969 C 7.078125 0.792969 5.289062 0.128906 3.894531 -1.203125 C 2.503906 -2.535156 1.808594 -4.203125 1.808594 -6.203125 C 1.808594 -8.394531 2.496094 -10.097656 3.863281 -11.304688 C 5.230469 -12.511719 7.027344 -13.253906 9.25 -13.53125 Z M 15.585938 -14.328125 "/>
</g>
<g id="glyph-1-3">
<path d="M 3.707031 -30.242188 L 7.726562 -30.242188 L 7.726562 -23.644531 L 11.5 -23.644531 L 11.5 -20.398438 L 7.726562 -20.398438 L 7.726562 -4.96875 C 7.726562 -4.144531 8.007812 -3.589844 8.566406 -3.3125 C 8.875 -3.148438 9.390625 -3.070312 10.109375 -3.070312 C 10.300781 -3.070312 10.507812 -3.070312 10.730469 -3.078125 C 10.949219 -3.085938 11.207031 -3.105469 11.5 -3.132812 L 11.5 0 C 11.042969 0.132812 10.570312 0.226562 10.078125 0.285156 C 9.585938 0.34375 9.050781 0.375 8.476562 0.375 C 6.621094 0.375 5.363281 -0.0976562 4.703125 -1.046875 C 4.039062 -1.996094 3.707031 -3.230469 3.707031 -4.746094 L 3.707031 -20.398438 L 0.507812 -20.398438 L 0.507812 -23.644531 L 3.707031 -23.644531 Z M 3.707031 -30.242188 "/>
</g>
<g id="glyph-1-4">
</g>
<g id="glyph-1-5">
<path d="M 5.429688 -11.546875 C 5.429688 -9.015625 5.96875 -6.894531 7.042969 -5.1875 C 8.117188 -3.480469 9.839844 -2.628906 12.207031 -2.628906 C 14.046875 -2.628906 15.558594 -3.417969 16.746094 -5 C 17.929688 -6.582031 18.519531 -8.851562 18.519531 -11.808594 C 18.519531 -14.796875 17.910156 -17.007812 16.6875 -18.445312 C 15.46875 -19.878906 13.960938 -20.597656 12.164062 -20.597656 C 10.164062 -20.597656 8.539062 -19.832031 7.296875 -18.300781 C 6.050781 -16.769531 5.429688 -14.519531 5.429688 -11.546875 Z M 11.414062 -24.0625 C 13.222656 -24.0625 14.738281 -23.679688 15.960938 -22.914062 C 16.667969 -22.472656 17.46875 -21.699219 18.367188 -20.597656 L 18.367188 -32.539062 L 22.1875 -32.539062 L 22.1875 0 L 18.609375 0 L 18.609375 -3.289062 C 17.683594 -1.832031 16.585938 -0.78125 15.320312 -0.132812 C 14.054688 0.515625 12.605469 0.839844 10.972656 0.839844 C 8.335938 0.839844 6.054688 -0.269531 4.128906 -2.484375 C 2.199219 -4.699219 1.234375 -7.644531 1.234375 -11.324219 C 1.234375 -14.769531 2.117188 -17.753906 3.875 -20.277344 C 5.632812 -22.800781 8.144531 -24.0625 11.414062 -24.0625 Z M 11.414062 -24.0625 "/>
</g>
<g id="glyph-1-6">
<path d="M 12.296875 -2.5625 C 14.929688 -2.5625 16.738281 -3.558594 17.714844 -5.550781 C 18.695312 -7.546875 19.183594 -9.765625 19.183594 -12.207031 C 19.183594 -14.414062 18.832031 -16.210938 18.125 -17.59375 C 17.007812 -19.773438 15.078125 -20.863281 12.339844 -20.863281 C 9.910156 -20.863281 8.144531 -19.933594 7.042969 -18.078125 C 5.9375 -16.226562 5.386719 -13.988281 5.386719 -11.367188 C 5.386719 -8.851562 5.9375 -6.753906 7.042969 -5.078125 C 8.144531 -3.398438 9.898438 -2.5625 12.296875 -2.5625 Z M 12.449219 -24.328125 C 15.496094 -24.328125 18.074219 -23.3125 20.175781 -21.28125 C 22.28125 -19.25 23.332031 -16.261719 23.332031 -12.316406 C 23.332031 -8.507812 22.40625 -5.355469 20.550781 -2.871094 C 18.699219 -0.382812 15.820312 0.859375 11.921875 0.859375 C 8.667969 0.859375 6.085938 -0.238281 4.171875 -2.4375 C 2.257812 -4.640625 1.300781 -7.59375 1.300781 -11.304688 C 1.300781 -15.277344 2.3125 -18.441406 4.328125 -20.796875 C 6.34375 -23.152344 9.050781 -24.328125 12.449219 -24.328125 Z M 12.449219 -24.328125 "/>
</g>
<g id="glyph-1-7">
<path d="M 4.746094 -23.644531 L 9.292969 -5.011719 L 13.90625 -23.644531 L 18.367188 -23.644531 L 23.003906 -5.121094 L 27.835938 -23.644531 L 31.8125 -23.644531 L 24.945312 0 L 20.816406 0 L 16.003906 -18.300781 L 11.347656 0 L 7.21875 0 L 0.398438 -23.644531 Z M 4.746094 -23.644531 "/>
</g>
<g id="glyph-1-8">
<path d="M 12.757812 -24.171875 C 14.4375 -24.171875 16.0625 -23.777344 17.636719 -22.992188 C 19.210938 -22.203125 20.414062 -21.183594 21.238281 -19.933594 C 22.03125 -18.742188 22.5625 -17.351562 22.828125 -15.761719 C 23.0625 -14.671875 23.179688 -12.9375 23.179688 -10.550781 L 5.851562 -10.550781 C 5.925781 -8.152344 6.492188 -6.230469 7.550781 -4.78125 C 8.609375 -3.332031 10.25 -2.605469 12.472656 -2.605469 C 14.546875 -2.605469 16.203125 -3.289062 17.441406 -4.65625 C 18.148438 -5.453125 18.648438 -6.371094 18.941406 -7.417969 L 22.847656 -7.417969 C 22.746094 -6.550781 22.402344 -5.582031 21.820312 -4.515625 C 21.238281 -3.449219 20.589844 -2.574219 19.867188 -1.898438 C 18.660156 -0.722656 17.167969 0.0742188 15.386719 0.484375 C 14.429688 0.722656 13.347656 0.839844 12.140625 0.839844 C 9.199219 0.839844 6.703125 -0.230469 4.65625 -2.375 C 2.613281 -4.515625 1.589844 -7.511719 1.589844 -11.367188 C 1.589844 -15.164062 2.621094 -18.25 4.679688 -20.617188 C 6.742188 -22.988281 9.433594 -24.171875 12.757812 -24.171875 Z M 19.09375 -13.707031 C 18.933594 -15.429688 18.558594 -16.808594 17.96875 -17.835938 C 16.878906 -19.75 15.0625 -20.707031 12.515625 -20.707031 C 10.691406 -20.707031 9.160156 -20.046875 7.925781 -18.730469 C 6.6875 -17.414062 6.035156 -15.738281 5.960938 -13.707031 Z M 19.09375 -13.707031 "/>
</g>
<g id="glyph-1-9">
<path d="M 2.914062 -23.644531 L 6.6875 -23.644531 L 6.6875 -20.289062 C 7.808594 -21.671875 8.992188 -22.664062 10.242188 -23.269531 C 11.492188 -23.871094 12.886719 -24.171875 14.414062 -24.171875 C 17.769531 -24.171875 20.039062 -23.003906 21.214844 -20.664062 C 21.863281 -19.382812 22.1875 -17.550781 22.1875 -15.164062 L 22.1875 0 L 18.144531 0 L 18.144531 -14.902344 C 18.144531 -16.34375 17.933594 -17.507812 17.507812 -18.390625 C 16.800781 -19.859375 15.519531 -20.597656 13.664062 -20.597656 C 12.722656 -20.597656 11.949219 -20.5 11.347656 -20.308594 C 10.257812 -19.984375 9.300781 -19.339844 8.476562 -18.367188 C 7.816406 -17.585938 7.382812 -16.78125 7.1875 -15.949219 C 6.988281 -15.117188 6.886719 -13.929688 6.886719 -12.382812 L 6.886719 0 L 2.914062 0 Z M 2.914062 -23.644531 "/>
</g>
<g id="glyph-1-10">
<path d="M 2.914062 -23.53125 L 6.953125 -23.53125 L 6.953125 0 L 2.914062 0 Z M 2.914062 -32.429688 L 6.953125 -32.429688 L 6.953125 -27.925781 L 2.914062 -27.925781 Z M 2.914062 -32.429688 "/>
</g>
<g id="glyph-1-11">
<path d="M 12.03125 -24.328125 C 14.695312 -24.328125 16.863281 -23.679688 18.53125 -22.382812 C 20.203125 -21.089844 21.207031 -18.859375 21.546875 -15.695312 L 17.683594 -15.695312 C 17.449219 -17.152344 16.910156 -18.363281 16.070312 -19.328125 C 15.230469 -20.292969 13.886719 -20.773438 12.03125 -20.773438 C 9.5 -20.773438 7.691406 -19.535156 6.601562 -17.066406 C 5.894531 -15.460938 5.539062 -13.480469 5.539062 -11.125 C 5.539062 -8.757812 6.042969 -6.761719 7.042969 -5.144531 C 8.042969 -3.523438 9.617188 -2.714844 11.765625 -2.714844 C 13.414062 -2.714844 14.722656 -3.21875 15.683594 -4.226562 C 16.648438 -5.234375 17.316406 -6.617188 17.683594 -8.367188 L 21.546875 -8.367188 C 21.105469 -5.230469 20 -2.941406 18.234375 -1.488281 C 16.46875 -0.0390625 14.210938 0.683594 11.457031 0.683594 C 8.367188 0.683594 5.902344 -0.445312 4.0625 -2.703125 C 2.222656 -4.964844 1.300781 -7.785156 1.300781 -11.171875 C 1.300781 -15.320312 2.3125 -18.550781 4.328125 -20.863281 C 6.34375 -23.171875 8.910156 -24.328125 12.03125 -24.328125 Z M 12.03125 -24.328125 "/>
</g>
<g id="glyph-1-12">
<path d="M 10.882812 -4.589844 L 15.277344 -4.589844 L 15.277344 0 L 10.882812 0 Z M 3.445312 -22.273438 C 3.445312 -25.453125 4.339844 -28.011719 6.136719 -29.945312 C 7.933594 -31.878906 10.398438 -32.847656 13.53125 -32.847656 C 16.429688 -32.847656 18.753906 -32.019531 20.496094 -30.363281 C 22.242188 -28.707031 23.113281 -26.59375 23.113281 -24.019531 C 23.113281 -22.457031 22.792969 -21.191406 22.152344 -20.222656 C 21.511719 -19.25 20.222656 -17.824219 18.277344 -15.9375 C 16.867188 -14.570312 15.949219 -13.410156 15.53125 -12.460938 C 15.109375 -11.511719 14.902344 -10.109375 14.902344 -8.257812 L 10.972656 -8.257812 C 10.972656 -10.363281 11.222656 -12.058594 11.722656 -13.34375 C 12.222656 -14.632812 13.320312 -16.109375 15.011719 -17.769531 L 16.777344 -19.515625 C 17.308594 -20.015625 17.734375 -20.539062 18.058594 -21.082031 C 18.648438 -22.039062 18.941406 -23.03125 18.941406 -24.0625 C 18.941406 -25.503906 18.511719 -26.753906 17.648438 -27.816406 C 16.789062 -28.875 15.363281 -29.40625 13.378906 -29.40625 C 10.921875 -29.40625 9.21875 -28.492188 8.277344 -26.667969 C 7.75 -25.652344 7.445312 -24.1875 7.375 -22.273438 Z M 3.445312 -22.273438 "/>
</g>
<g id="glyph-2-0">
<path d="M 8.613281 -10.328125 L 8.613281 -9.097656 L 5.132812 -9.097656 L 5.132812 0 L 3.710938 0 L 3.710938 -9.097656 L 0.230469 -9.097656 L 0.230469 -10.328125 Z M 8.613281 -10.328125 "/>
</g>
<g id="glyph-2-1">
<path d="M 0.929688 -10.363281 L 2.195312 -10.363281 L 2.195312 -6.511719 C 2.496094 -6.890625 2.761719 -7.15625 3.003906 -7.3125 C 3.410156 -7.578125 3.917969 -7.714844 4.527344 -7.714844 C 5.621094 -7.714844 6.359375 -7.332031 6.75 -6.566406 C 6.960938 -6.148438 7.066406 -5.570312 7.066406 -4.832031 L 7.066406 0 L 5.765625 0 L 5.765625 -4.746094 C 5.765625 -5.300781 5.695312 -5.703125 5.554688 -5.960938 C 5.324219 -6.375 4.894531 -6.582031 4.261719 -6.582031 C 3.734375 -6.582031 3.261719 -6.402344 2.832031 -6.039062 C 2.40625 -5.679688 2.195312 -4.996094 2.195312 -3.992188 L 2.195312 0 L 0.929688 0 Z M 0.929688 -10.363281 "/>
</g>
<g id="glyph-2-2">
<path d="M 4.0625 -7.699219 C 4.597656 -7.699219 5.117188 -7.574219 5.617188 -7.324219 C 6.121094 -7.074219 6.5 -6.746094 6.765625 -6.347656 C 7.019531 -5.96875 7.1875 -5.527344 7.269531 -5.019531 C 7.34375 -4.671875 7.382812 -4.121094 7.382812 -3.359375 L 1.863281 -3.359375 C 1.886719 -2.597656 2.066406 -1.984375 2.40625 -1.523438 C 2.742188 -1.0625 3.265625 -0.828125 3.972656 -0.828125 C 4.632812 -0.828125 5.160156 -1.046875 5.554688 -1.484375 C 5.78125 -1.738281 5.9375 -2.03125 6.03125 -2.363281 L 7.277344 -2.363281 C 7.246094 -2.085938 7.136719 -1.777344 6.949219 -1.4375 C 6.765625 -1.097656 6.558594 -0.820312 6.328125 -0.605469 C 5.945312 -0.230469 5.46875 0.0234375 4.902344 0.15625 C 4.597656 0.230469 4.25 0.265625 3.867188 0.265625 C 2.929688 0.265625 2.136719 -0.0742188 1.484375 -0.757812 C 0.832031 -1.4375 0.507812 -2.394531 0.507812 -3.621094 C 0.507812 -4.832031 0.835938 -5.8125 1.492188 -6.566406 C 2.148438 -7.320312 3.003906 -7.699219 4.0625 -7.699219 Z M 6.082031 -4.367188 C 6.03125 -4.914062 5.910156 -5.351562 5.722656 -5.679688 C 5.375 -6.289062 4.796875 -6.59375 3.988281 -6.59375 C 3.40625 -6.59375 2.917969 -6.386719 2.523438 -5.964844 C 2.128906 -5.546875 1.921875 -5.011719 1.898438 -4.367188 Z M 6.082031 -4.367188 "/>
</g>
<g id="glyph-2-3">
</g>
<g id="glyph-2-4">
<path d="M 4.105469 -0.851562 C 4.695312 -0.851562 5.1875 -1.097656 5.578125 -1.59375 C 5.96875 -2.085938 6.167969 -2.828125 6.167969 -3.8125 C 6.167969 -4.410156 6.078125 -4.925781 5.90625 -5.359375 C 5.578125 -6.1875 4.976562 -6.601562 4.105469 -6.601562 C 3.230469 -6.601562 2.628906 -6.164062 2.304688 -5.289062 C 2.132812 -4.820312 2.046875 -4.222656 2.046875 -3.5 C 2.046875 -2.917969 2.132812 -2.425781 2.304688 -2.019531 C 2.632812 -1.242188 3.234375 -0.851562 4.105469 -0.851562 Z M 0.828125 -7.496094 L 2.058594 -7.496094 L 2.058594 -6.496094 C 2.3125 -6.839844 2.589844 -7.105469 2.890625 -7.292969 C 3.316406 -7.574219 3.816406 -7.714844 4.394531 -7.714844 C 5.246094 -7.714844 5.972656 -7.386719 6.566406 -6.734375 C 7.164062 -6.078125 7.460938 -5.144531 7.460938 -3.929688 C 7.460938 -2.289062 7.03125 -1.117188 6.171875 -0.414062 C 5.628906 0.03125 4.996094 0.253906 4.273438 0.253906 C 3.707031 0.253906 3.230469 0.128906 2.847656 -0.121094 C 2.621094 -0.261719 2.371094 -0.5 2.09375 -0.84375 L 2.09375 3.003906 L 0.828125 3.003906 Z M 0.828125 -7.496094 "/>
</g>
<g id="glyph-2-5">
<path d="M 1.898438 -2.003906 C 1.898438 -1.636719 2.03125 -1.351562 2.300781 -1.140625 C 2.566406 -0.929688 2.882812 -0.824219 3.25 -0.824219 C 3.695312 -0.824219 4.125 -0.925781 4.542969 -1.132812 C 5.246094 -1.472656 5.597656 -2.035156 5.597656 -2.8125 L 5.597656 -3.832031 C 5.441406 -3.734375 5.242188 -3.652344 5 -3.585938 C 4.753906 -3.519531 4.515625 -3.472656 4.28125 -3.445312 L 3.515625 -3.347656 C 3.054688 -3.285156 2.710938 -3.191406 2.480469 -3.058594 C 2.09375 -2.839844 1.898438 -2.488281 1.898438 -2.003906 Z M 4.964844 -4.5625 C 5.253906 -4.601562 5.449219 -4.722656 5.546875 -4.929688 C 5.605469 -5.042969 5.632812 -5.203125 5.632812 -5.414062 C 5.632812 -5.84375 5.480469 -6.160156 5.171875 -6.351562 C 4.863281 -6.546875 4.425781 -6.644531 3.851562 -6.644531 C 3.191406 -6.644531 2.722656 -6.464844 2.445312 -6.109375 C 2.292969 -5.914062 2.191406 -5.621094 2.144531 -5.230469 L 0.964844 -5.230469 C 0.988281 -6.160156 1.289062 -6.804688 1.867188 -7.167969 C 2.445312 -7.53125 3.117188 -7.714844 3.882812 -7.714844 C 4.769531 -7.714844 5.488281 -7.542969 6.039062 -7.207031 C 6.589844 -6.871094 6.863281 -6.34375 6.863281 -5.632812 L 6.863281 -1.292969 C 6.863281 -1.164062 6.890625 -1.058594 6.945312 -0.976562 C 6.996094 -0.898438 7.109375 -0.859375 7.285156 -0.859375 C 7.339844 -0.859375 7.402344 -0.863281 7.472656 -0.867188 C 7.542969 -0.875 7.621094 -0.886719 7.699219 -0.898438 L 7.699219 0.0351562 C 7.503906 0.0898438 7.351562 0.125 7.25 0.140625 C 7.144531 0.15625 7.003906 0.160156 6.828125 0.160156 C 6.390625 0.160156 6.074219 0.0078125 5.878906 -0.300781 C 5.773438 -0.464844 5.703125 -0.699219 5.660156 -1 C 5.402344 -0.660156 5.03125 -0.367188 4.550781 -0.121094 C 4.066406 0.128906 3.535156 0.253906 2.953125 0.253906 C 2.253906 0.253906 1.683594 0.0429688 1.242188 -0.382812 C 0.796875 -0.808594 0.578125 -1.339844 0.578125 -1.976562 C 0.578125 -2.675781 0.792969 -3.214844 1.230469 -3.601562 C 1.667969 -3.984375 2.238281 -4.222656 2.945312 -4.308594 Z M 4.964844 -4.5625 "/>
</g>
<g id="glyph-2-6">
<path d="M 0.929688 -7.53125 L 2.128906 -7.53125 L 2.128906 -6.460938 C 2.484375 -6.902344 2.863281 -7.21875 3.261719 -7.410156 C 3.660156 -7.601562 4.105469 -7.699219 4.589844 -7.699219 C 5.660156 -7.699219 6.382812 -7.328125 6.757812 -6.582031 C 6.964844 -6.171875 7.066406 -5.589844 7.066406 -4.832031 L 7.066406 0 L 5.78125 0 L 5.78125 -4.746094 C 5.78125 -5.207031 5.710938 -5.574219 5.574219 -5.855469 C 5.351562 -6.324219 4.941406 -6.558594 4.351562 -6.558594 C 4.050781 -6.558594 3.804688 -6.53125 3.613281 -6.46875 C 3.265625 -6.367188 2.960938 -6.160156 2.699219 -5.851562 C 2.488281 -5.601562 2.351562 -5.34375 2.289062 -5.082031 C 2.226562 -4.816406 2.195312 -4.4375 2.195312 -3.945312 L 2.195312 0 L 0.929688 0 Z M 0.929688 -7.53125 "/>
</g>
<g id="glyph-2-7">
<path d="M 0.964844 -10.328125 L 2.230469 -10.328125 L 2.230469 0 L 0.964844 0 Z M 0.964844 -10.328125 "/>
</g>
<g id="glyph-2-8">
<path d="M 0.929688 -7.53125 L 2.179688 -7.53125 L 2.179688 -6.460938 C 2.480469 -6.832031 2.75 -7.101562 2.996094 -7.269531 C 3.414062 -7.554688 3.886719 -7.699219 4.414062 -7.699219 C 5.015625 -7.699219 5.5 -7.550781 5.863281 -7.257812 C 6.070312 -7.089844 6.257812 -6.839844 6.425781 -6.511719 C 6.707031 -6.914062 7.039062 -7.214844 7.417969 -7.40625 C 7.796875 -7.601562 8.222656 -7.699219 8.699219 -7.699219 C 9.710938 -7.699219 10.398438 -7.332031 10.765625 -6.601562 C 10.960938 -6.207031 11.058594 -5.679688 11.058594 -5.011719 L 11.058594 0 L 9.746094 0 L 9.746094 -5.230469 C 9.746094 -5.734375 9.621094 -6.078125 9.371094 -6.265625 C 9.121094 -6.453125 8.8125 -6.546875 8.453125 -6.546875 C 7.957031 -6.546875 7.527344 -6.378906 7.167969 -6.046875 C 6.808594 -5.714844 6.628906 -5.160156 6.628906 -4.378906 L 6.628906 0 L 5.34375 0 L 5.34375 -4.914062 C 5.34375 -5.425781 5.28125 -5.796875 5.160156 -6.03125 C 4.96875 -6.382812 4.609375 -6.558594 4.085938 -6.558594 C 3.605469 -6.558594 3.171875 -6.375 2.78125 -6.003906 C 2.390625 -5.632812 2.195312 -4.964844 2.195312 -3.992188 L 2.195312 0 L 0.929688 0 Z M 0.929688 -7.53125 "/>
</g>
<g id="glyph-2-9">
<path d="M 3.917969 -0.816406 C 4.757812 -0.816406 5.332031 -1.132812 5.644531 -1.769531 C 5.953125 -2.402344 6.109375 -3.109375 6.109375 -3.886719 C 6.109375 -4.589844 5.996094 -5.164062 5.773438 -5.605469 C 5.417969 -6.296875 4.800781 -6.644531 3.929688 -6.644531 C 3.15625 -6.644531 2.59375 -6.347656 2.242188 -5.757812 C 1.890625 -5.167969 1.714844 -4.457031 1.714844 -3.621094 C 1.714844 -2.820312 1.890625 -2.152344 2.242188 -1.617188 C 2.59375 -1.082031 3.152344 -0.816406 3.917969 -0.816406 Z M 3.964844 -7.75 C 4.9375 -7.75 5.757812 -7.425781 6.425781 -6.777344 C 7.097656 -6.132812 7.433594 -5.179688 7.433594 -3.921875 C 7.433594 -2.707031 7.136719 -1.707031 6.546875 -0.914062 C 5.957031 -0.121094 5.039062 0.273438 3.796875 0.273438 C 2.761719 0.273438 1.9375 -0.078125 1.328125 -0.777344 C 0.71875 -1.476562 0.414062 -2.417969 0.414062 -3.601562 C 0.414062 -4.867188 0.734375 -5.875 1.378906 -6.625 C 2.019531 -7.375 2.882812 -7.75 3.964844 -7.75 Z M 3.964844 -7.75 "/>
</g>
<g id="glyph-2-10">
<path d="M 1.546875 -7.53125 L 3.558594 -1.398438 L 5.660156 -7.53125 L 7.046875 -7.53125 L 4.203125 0 L 2.855469 0 L 0.078125 -7.53125 Z M 1.546875 -7.53125 "/>
</g>
<g id="glyph-2-11">
<path d="M 1.679688 -2.363281 C 1.71875 -1.941406 1.824219 -1.617188 1.996094 -1.390625 C 2.316406 -0.984375 2.867188 -0.78125 3.65625 -0.78125 C 4.125 -0.78125 4.539062 -0.882812 4.894531 -1.085938 C 5.25 -1.289062 5.429688 -1.605469 5.429688 -2.03125 C 5.429688 -2.355469 5.285156 -2.601562 5 -2.769531 C 4.816406 -2.875 4.457031 -2.992188 3.917969 -3.128906 L 2.910156 -3.382812 C 2.269531 -3.542969 1.796875 -3.71875 1.492188 -3.917969 C 0.949219 -4.257812 0.675781 -4.730469 0.675781 -5.335938 C 0.675781 -6.050781 0.933594 -6.625 1.445312 -7.066406 C 1.957031 -7.507812 2.648438 -7.726562 3.515625 -7.726562 C 4.648438 -7.726562 5.46875 -7.394531 5.96875 -6.730469 C 6.285156 -6.308594 6.4375 -5.851562 6.425781 -5.363281 L 5.230469 -5.363281 C 5.207031 -5.648438 5.105469 -5.910156 4.929688 -6.144531 C 4.636719 -6.476562 4.132812 -6.644531 3.417969 -6.644531 C 2.9375 -6.644531 2.578125 -6.554688 2.332031 -6.371094 C 2.085938 -6.1875 1.960938 -5.945312 1.960938 -5.644531 C 1.960938 -5.316406 2.125 -5.054688 2.445312 -4.859375 C 2.632812 -4.742188 2.910156 -4.636719 3.277344 -4.550781 L 4.113281 -4.34375 C 5.023438 -4.125 5.632812 -3.910156 5.941406 -3.707031 C 6.433594 -3.382812 6.679688 -2.875 6.679688 -2.179688 C 6.679688 -1.507812 6.425781 -0.929688 5.917969 -0.441406 C 5.410156 0.046875 4.632812 0.289062 3.59375 0.289062 C 2.472656 0.289062 1.679688 0.0351562 1.214844 -0.476562 C 0.746094 -0.984375 0.496094 -1.613281 0.464844 -2.363281 Z M 1.679688 -2.363281 "/>
</g>
<g id="glyph-2-12">
<path d="M 1.230469 -1.53125 L 2.699219 -1.53125 L 2.699219 0 L 1.230469 0 Z M 1.230469 -1.53125 "/>
</g>
<g id="glyph-2-13">
<path d="M 1.414062 -10.328125 L 2.828125 -10.328125 L 2.828125 0 L 1.414062 0 Z M 1.414062 -10.328125 "/>
</g>
<g id="glyph-2-14">
<path d="M 1.179688 -9.632812 L 2.460938 -9.632812 L 2.460938 -7.53125 L 3.664062 -7.53125 L 3.664062 -6.496094 L 2.460938 -6.496094 L 2.460938 -1.582031 C 2.460938 -1.320312 2.550781 -1.144531 2.726562 -1.054688 C 2.824219 -1.003906 2.992188 -0.976562 3.21875 -0.976562 C 3.28125 -0.976562 3.347656 -0.980469 3.417969 -0.980469 C 3.488281 -0.984375 3.570312 -0.988281 3.664062 -1 L 3.664062 0 C 3.519531 0.0429688 3.367188 0.0742188 3.210938 0.0898438 C 3.054688 0.109375 2.882812 0.121094 2.699219 0.121094 C 2.109375 0.121094 1.707031 -0.03125 1.496094 -0.335938 C 1.285156 -0.636719 1.179688 -1.027344 1.179688 -1.511719 L 1.179688 -6.496094 L 0.160156 -6.496094 L 0.160156 -7.53125 L 1.179688 -7.53125 Z M 1.179688 -9.632812 "/>
</g>
<g id="glyph-2-15">
<path d="M 1.730469 -3.675781 C 1.730469 -2.871094 1.902344 -2.195312 2.242188 -1.652344 C 2.585938 -1.109375 3.132812 -0.835938 3.886719 -0.835938 C 4.472656 -0.835938 4.957031 -1.089844 5.332031 -1.59375 C 5.710938 -2.097656 5.898438 -2.820312 5.898438 -3.761719 C 5.898438 -4.714844 5.703125 -5.417969 5.316406 -5.875 C 4.925781 -6.332031 4.445312 -6.558594 3.875 -6.558594 C 3.238281 -6.558594 2.71875 -6.316406 2.324219 -5.828125 C 1.929688 -5.339844 1.730469 -4.625 1.730469 -3.675781 Z M 3.636719 -7.664062 C 4.210938 -7.664062 4.695312 -7.542969 5.082031 -7.296875 C 5.308594 -7.15625 5.5625 -6.910156 5.851562 -6.558594 L 5.851562 -10.363281 L 7.066406 -10.363281 L 7.066406 0 L 5.925781 0 L 5.925781 -1.046875 C 5.632812 -0.582031 5.28125 -0.25 4.878906 -0.0429688 C 4.476562 0.164062 4.015625 0.265625 3.496094 0.265625 C 2.65625 0.265625 1.929688 -0.0859375 1.316406 -0.792969 C 0.703125 -1.496094 0.394531 -2.433594 0.394531 -3.605469 C 0.394531 -4.703125 0.675781 -5.65625 1.234375 -6.457031 C 1.792969 -7.261719 2.59375 -7.664062 3.636719 -7.664062 Z M 3.636719 -7.664062 "/>
</g>
<g id="glyph-2-16">
<path d="M 3.832031 -7.75 C 4.679688 -7.75 5.371094 -7.542969 5.902344 -7.128906 C 6.433594 -6.71875 6.753906 -6.007812 6.863281 -5 L 5.632812 -5 C 5.558594 -5.464844 5.386719 -5.847656 5.117188 -6.15625 C 4.851562 -6.464844 4.421875 -6.617188 3.832031 -6.617188 C 3.027344 -6.617188 2.449219 -6.222656 2.101562 -5.433594 C 1.878906 -4.921875 1.765625 -4.292969 1.765625 -3.542969 C 1.765625 -2.789062 1.925781 -2.152344 2.242188 -1.636719 C 2.5625 -1.121094 3.0625 -0.863281 3.746094 -0.863281 C 4.273438 -0.863281 4.6875 -1.027344 4.996094 -1.347656 C 5.304688 -1.667969 5.515625 -2.105469 5.632812 -2.664062 L 6.863281 -2.664062 C 6.722656 -1.667969 6.371094 -0.9375 5.808594 -0.476562 C 5.246094 -0.0117188 4.527344 0.21875 3.648438 0.21875 C 2.664062 0.21875 1.878906 -0.140625 1.292969 -0.863281 C 0.707031 -1.582031 0.414062 -2.480469 0.414062 -3.558594 C 0.414062 -4.878906 0.734375 -5.910156 1.378906 -6.644531 C 2.019531 -7.378906 2.839844 -7.75 3.832031 -7.75 Z M 3.832031 -7.75 "/>
</g>
<g id="glyph-2-17">
<path d="M 0.929688 -7.496094 L 2.214844 -7.496094 L 2.214844 0 L 0.929688 0 Z M 0.929688 -10.328125 L 2.214844 -10.328125 L 2.214844 -8.894531 L 0.929688 -8.894531 Z M 0.929688 -10.328125 "/>
</g>
<g id="glyph-2-18">
<path d="M 0.964844 -7.53125 L 2.164062 -7.53125 L 2.164062 -6.230469 C 2.261719 -6.484375 2.503906 -6.792969 2.890625 -7.15625 C 3.273438 -7.519531 3.71875 -7.699219 4.21875 -7.699219 C 4.242188 -7.699219 4.28125 -7.695312 4.339844 -7.691406 C 4.394531 -7.6875 4.492188 -7.679688 4.625 -7.664062 L 4.625 -6.328125 C 4.550781 -6.34375 4.484375 -6.351562 4.417969 -6.355469 C 4.355469 -6.359375 4.285156 -6.363281 4.210938 -6.363281 C 3.574219 -6.363281 3.085938 -6.160156 2.742188 -5.75 C 2.398438 -5.339844 2.230469 -4.867188 2.230469 -4.332031 L 2.230469 0 L 0.964844 0 Z M 0.964844 -7.53125 "/>
</g>
<g id="glyph-2-19">
<path d="M 3.585938 -7.664062 C 4.175781 -7.664062 4.691406 -7.519531 5.132812 -7.226562 C 5.371094 -7.0625 5.617188 -6.824219 5.863281 -6.511719 L 5.863281 -7.460938 L 7.03125 -7.460938 L 7.03125 -0.613281 C 7.03125 0.34375 6.890625 1.097656 6.609375 1.652344 C 6.085938 2.675781 5.09375 3.183594 3.636719 3.183594 C 2.824219 3.183594 2.140625 3.003906 1.589844 2.640625 C 1.035156 2.277344 0.726562 1.707031 0.660156 0.933594 L 1.949219 0.933594 C 2.007812 1.273438 2.128906 1.53125 2.3125 1.714844 C 2.597656 1.996094 3.050781 2.136719 3.664062 2.136719 C 4.632812 2.136719 5.269531 1.796875 5.570312 1.109375 C 5.746094 0.707031 5.828125 -0.0117188 5.816406 -1.046875 C 5.5625 -0.664062 5.257812 -0.378906 4.902344 -0.191406 C 4.546875 -0.00390625 4.074219 0.0898438 3.488281 0.0898438 C 2.671875 0.0898438 1.957031 -0.199219 1.347656 -0.777344 C 0.734375 -1.355469 0.429688 -2.3125 0.429688 -3.648438 C 0.429688 -4.910156 0.738281 -5.894531 1.355469 -6.601562 C 1.96875 -7.308594 2.714844 -7.664062 3.585938 -7.664062 Z M 5.863281 -3.796875 C 5.863281 -4.730469 5.671875 -5.421875 5.289062 -5.871094 C 4.902344 -6.320312 4.414062 -6.546875 3.816406 -6.546875 C 2.925781 -6.546875 2.316406 -6.128906 1.988281 -5.292969 C 1.816406 -4.847656 1.730469 -4.265625 1.730469 -3.542969 C 1.730469 -2.695312 1.902344 -2.050781 2.246094 -1.605469 C 2.589844 -1.164062 3.054688 -0.941406 3.636719 -0.941406 C 4.546875 -0.941406 5.183594 -1.351562 5.554688 -2.171875 C 5.761719 -2.636719 5.863281 -3.179688 5.863281 -3.796875 Z M 5.863281 -3.796875 "/>
</g>
<g id="glyph-2-20">
<path d="M 5.632812 -7.53125 L 7.03125 -7.53125 C 6.851562 -7.046875 6.457031 -5.945312 5.84375 -4.226562 C 5.382812 -2.933594 5 -1.878906 4.691406 -1.0625 C 3.960938 0.859375 3.441406 2.03125 3.144531 2.453125 C 2.84375 2.875 2.328125 3.085938 1.597656 3.085938 C 1.417969 3.085938 1.28125 3.078125 1.183594 3.066406 C 1.089844 3.050781 0.96875 3.027344 0.828125 2.988281 L 0.828125 1.835938 C 1.050781 1.894531 1.210938 1.933594 1.308594 1.949219 C 1.40625 1.960938 1.492188 1.96875 1.566406 1.96875 C 1.800781 1.96875 1.976562 1.929688 2.085938 1.851562 C 2.195312 1.773438 2.289062 1.679688 2.363281 1.566406 C 2.386719 1.53125 2.46875 1.339844 2.617188 0.992188 C 2.761719 0.644531 2.867188 0.386719 2.933594 0.21875 L 0.148438 -7.53125 L 1.582031 -7.53125 L 3.601562 -1.398438 Z M 5.632812 -7.53125 "/>
</g>
<g id="glyph-3-0">
<path d="M 10.902344 -21.226562 C 13.519531 -21.226562 15.550781 -20.539062 16.992188 -19.160156 C 18.4375 -17.78125 19.238281 -16.214844 19.398438 -14.460938 L 16.667969 -14.460938 C 16.359375 -15.792969 15.742188 -16.847656 14.820312 -17.625 C 13.894531 -18.402344 12.597656 -18.792969 10.929688 -18.792969 C 8.894531 -18.792969 7.25 -18.078125 6 -16.648438 C 4.746094 -15.21875 4.121094 -13.027344 4.121094 -10.070312 C 4.121094 -7.652344 4.6875 -5.691406 5.816406 -4.183594 C 6.945312 -2.679688 8.632812 -1.925781 10.875 -1.925781 C 12.9375 -1.925781 14.507812 -2.71875 15.585938 -4.304688 C 16.160156 -5.140625 16.585938 -6.238281 16.867188 -7.597656 L 19.59375 -7.597656 C 19.351562 -5.421875 18.546875 -3.597656 17.175781 -2.125 C 15.535156 -0.351562 13.320312 0.535156 10.535156 0.535156 C 8.136719 0.535156 6.121094 -0.191406 4.488281 -1.644531 C 2.339844 -3.566406 1.265625 -6.535156 1.265625 -10.550781 C 1.265625 -13.597656 2.074219 -16.097656 3.6875 -18.046875 C 5.429688 -20.167969 7.835938 -21.226562 10.902344 -21.226562 Z M 10.902344 -21.226562 "/>
</g>
<g id="glyph-3-1">
<path d="M 7.835938 -1.632812 C 9.515625 -1.632812 10.664062 -2.265625 11.289062 -3.539062 C 11.914062 -4.808594 12.222656 -6.222656 12.222656 -7.777344 C 12.222656 -9.183594 12 -10.328125 11.550781 -11.210938 C 10.835938 -12.597656 9.609375 -13.292969 7.863281 -13.292969 C 6.316406 -13.292969 5.191406 -12.703125 4.488281 -11.519531 C 3.785156 -10.339844 3.433594 -8.914062 3.433594 -7.246094 C 3.433594 -5.640625 3.785156 -4.304688 4.488281 -3.234375 C 5.191406 -2.164062 6.308594 -1.632812 7.835938 -1.632812 Z M 7.933594 -15.503906 C 9.875 -15.503906 11.515625 -14.855469 12.855469 -13.5625 C 14.199219 -12.265625 14.867188 -10.363281 14.867188 -7.847656 C 14.867188 -5.421875 14.277344 -3.414062 13.097656 -1.828125 C 11.914062 -0.242188 10.082031 0.546875 7.597656 0.546875 C 5.523438 0.546875 3.878906 -0.152344 2.660156 -1.554688 C 1.441406 -2.957031 0.828125 -4.839844 0.828125 -7.203125 C 0.828125 -9.734375 1.472656 -11.75 2.757812 -13.25 C 4.042969 -14.75 5.765625 -15.503906 7.933594 -15.503906 Z M 7.933594 -15.503906 "/>
</g>
<g id="glyph-3-2">
<path d="M 1.855469 -15.066406 L 4.261719 -15.066406 L 4.261719 -12.925781 C 4.976562 -13.808594 5.730469 -14.441406 6.527344 -14.828125 C 7.324219 -15.210938 8.210938 -15.402344 9.1875 -15.402344 C 11.324219 -15.402344 12.769531 -14.65625 13.519531 -13.167969 C 13.929688 -12.351562 14.136719 -11.183594 14.136719 -9.664062 L 14.136719 0 L 11.5625 0 L 11.5625 -9.496094 C 11.5625 -10.414062 11.425781 -11.15625 11.15625 -11.71875 C 10.707031 -12.65625 9.890625 -13.125 8.707031 -13.125 C 8.105469 -13.125 7.613281 -13.0625 7.230469 -12.941406 C 6.535156 -12.734375 5.925781 -12.324219 5.402344 -11.703125 C 4.980469 -11.207031 4.707031 -10.695312 4.578125 -10.164062 C 4.453125 -9.632812 4.390625 -8.875 4.390625 -7.890625 L 4.390625 0 L 1.855469 0 Z M 1.855469 -15.066406 "/>
</g>
<g id="glyph-3-3">
<path d="M 8.128906 -15.402344 C 9.199219 -15.402344 10.234375 -15.152344 11.238281 -14.652344 C 12.242188 -14.148438 13.007812 -13.5 13.53125 -12.703125 C 14.039062 -11.941406 14.375 -11.058594 14.546875 -10.042969 C 14.695312 -9.351562 14.769531 -8.242188 14.769531 -6.722656 L 3.726562 -6.722656 C 3.773438 -5.195312 4.136719 -3.96875 4.8125 -3.046875 C 5.488281 -2.121094 6.53125 -1.660156 7.949219 -1.660156 C 9.269531 -1.660156 10.324219 -2.097656 11.113281 -2.96875 C 11.5625 -3.476562 11.882812 -4.0625 12.070312 -4.726562 L 14.558594 -4.726562 C 14.492188 -4.171875 14.277344 -3.558594 13.90625 -2.875 C 13.535156 -2.195312 13.121094 -1.640625 12.660156 -1.210938 C 11.890625 -0.460938 10.941406 0.046875 9.804688 0.308594 C 9.195312 0.460938 8.507812 0.535156 7.738281 0.535156 C 5.863281 0.535156 4.273438 -0.148438 2.96875 -1.511719 C 1.664062 -2.875 1.011719 -4.789062 1.011719 -7.246094 C 1.011719 -9.664062 1.667969 -11.628906 2.980469 -13.140625 C 4.292969 -14.648438 6.011719 -15.402344 8.128906 -15.402344 Z M 12.167969 -8.734375 C 12.066406 -9.832031 11.824219 -10.710938 11.449219 -11.367188 C 10.757812 -12.585938 9.597656 -13.195312 7.976562 -13.195312 C 6.8125 -13.195312 5.835938 -12.773438 5.050781 -11.9375 C 4.261719 -11.097656 3.84375 -10.03125 3.796875 -8.734375 Z M 12.167969 -8.734375 "/>
</g>
<g id="glyph-3-4">
<path d="M 7.667969 -15.503906 C 9.363281 -15.503906 10.746094 -15.089844 11.808594 -14.265625 C 12.875 -13.4375 13.515625 -12.019531 13.730469 -10 L 11.269531 -10 C 11.117188 -10.929688 10.777344 -11.703125 10.242188 -12.316406 C 9.707031 -12.929688 8.847656 -13.238281 7.667969 -13.238281 C 6.054688 -13.238281 4.898438 -12.449219 4.207031 -10.875 C 3.757812 -9.851562 3.53125 -8.589844 3.53125 -7.089844 C 3.53125 -5.578125 3.851562 -4.308594 4.488281 -3.277344 C 5.125 -2.246094 6.128906 -1.730469 7.496094 -1.730469 C 8.546875 -1.730469 9.378906 -2.050781 9.996094 -2.695312 C 10.609375 -3.335938 11.035156 -4.214844 11.269531 -5.332031 L 13.730469 -5.332031 C 13.449219 -3.335938 12.746094 -1.875 11.621094 -0.949219 C 10.496094 -0.0273438 9.054688 0.4375 7.300781 0.4375 C 5.332031 0.4375 3.761719 -0.285156 2.589844 -1.722656 C 1.417969 -3.164062 0.828125 -4.960938 0.828125 -7.117188 C 0.828125 -9.761719 1.472656 -11.820312 2.757812 -13.292969 C 4.042969 -14.765625 5.679688 -15.503906 7.667969 -15.503906 Z M 7.667969 -15.503906 "/>
</g>
<g id="glyph-3-5">
<path d="M 2.363281 -19.273438 L 4.921875 -19.273438 L 4.921875 -15.066406 L 7.328125 -15.066406 L 7.328125 -13 L 4.921875 -13 L 4.921875 -3.164062 C 4.921875 -2.640625 5.101562 -2.289062 5.457031 -2.109375 C 5.65625 -2.007812 5.984375 -1.957031 6.441406 -1.957031 C 6.5625 -1.957031 6.695312 -1.957031 6.835938 -1.960938 C 6.976562 -1.964844 7.140625 -1.980469 7.328125 -1.996094 L 7.328125 0 C 7.039062 0.0859375 6.734375 0.144531 6.421875 0.183594 C 6.109375 0.21875 5.765625 0.238281 5.402344 0.238281 C 4.21875 0.238281 3.417969 -0.0625 2.996094 -0.667969 C 2.574219 -1.273438 2.363281 -2.058594 2.363281 -3.023438 L 2.363281 -13 L 0.324219 -13 L 0.324219 -15.066406 L 2.363281 -15.066406 Z M 2.363281 -19.273438 "/>
</g>
<g id="glyph-3-6">
</g>
<g id="glyph-3-7">
<path d="M 1.855469 -20.734375 L 4.390625 -20.734375 L 4.390625 -13.027344 C 4.988281 -13.785156 5.527344 -14.320312 6.007812 -14.628906 C 6.824219 -15.164062 7.839844 -15.433594 9.058594 -15.433594 C 11.242188 -15.433594 12.726562 -14.667969 13.503906 -13.140625 C 13.925781 -12.304688 14.136719 -11.144531 14.136719 -9.664062 L 14.136719 0 L 11.535156 0 L 11.535156 -9.496094 C 11.535156 -10.601562 11.394531 -11.414062 11.113281 -11.929688 C 10.652344 -12.753906 9.789062 -13.167969 8.523438 -13.167969 C 7.472656 -13.167969 6.523438 -12.804688 5.667969 -12.082031 C 4.816406 -11.359375 4.390625 -9.996094 4.390625 -7.988281 L 4.390625 0 L 1.855469 0 Z M 1.855469 -20.734375 "/>
</g>
<g id="glyph-3-8">
<path d="M 1.855469 -14.996094 L 4.429688 -14.996094 L 4.429688 0 L 1.855469 0 Z M 1.855469 -20.664062 L 4.429688 -20.664062 L 4.429688 -17.796875 L 1.855469 -17.796875 Z M 1.855469 -20.664062 "/>
</g>
<g id="glyph-3-9">
<path d="M 3.460938 -7.355469 C 3.460938 -5.742188 3.804688 -4.394531 4.488281 -3.304688 C 5.171875 -2.21875 6.269531 -1.675781 7.777344 -1.675781 C 8.949219 -1.675781 9.914062 -2.179688 10.671875 -3.1875 C 11.425781 -4.195312 11.800781 -5.640625 11.800781 -7.527344 C 11.800781 -9.429688 11.414062 -10.839844 10.636719 -11.753906 C 9.855469 -12.667969 8.894531 -13.125 7.75 -13.125 C 6.476562 -13.125 5.441406 -12.636719 4.648438 -11.660156 C 3.855469 -10.6875 3.460938 -9.25 3.460938 -7.355469 Z M 7.273438 -15.332031 C 8.425781 -15.332031 9.390625 -15.089844 10.171875 -14.601562 C 10.621094 -14.320312 11.132812 -13.828125 11.703125 -13.125 L 11.703125 -20.734375 L 14.136719 -20.734375 L 14.136719 0 L 11.859375 0 L 11.859375 -2.097656 C 11.269531 -1.167969 10.570312 -0.496094 9.761719 -0.0859375 C 8.957031 0.328125 8.03125 0.535156 6.992188 0.535156 C 5.3125 0.535156 3.859375 -0.171875 2.628906 -1.582031 C 1.402344 -2.992188 0.789062 -4.871094 0.789062 -7.214844 C 0.789062 -9.410156 1.347656 -11.3125 2.46875 -12.921875 C 3.589844 -14.53125 5.191406 -15.332031 7.273438 -15.332031 Z M 7.273438 -15.332031 "/>
</g>
<g id="glyph-3-10">
<path d="M 3.796875 -4.007812 C 3.796875 -3.277344 4.066406 -2.699219 4.601562 -2.277344 C 5.136719 -1.855469 5.765625 -1.644531 6.5 -1.644531 C 7.390625 -1.644531 8.253906 -1.851562 9.085938 -2.265625 C 10.492188 -2.949219 11.199219 -4.070312 11.199219 -5.625 L 11.199219 -7.667969 C 10.886719 -7.46875 10.488281 -7.304688 10 -7.175781 C 9.511719 -7.042969 9.035156 -6.949219 8.566406 -6.894531 L 7.035156 -6.695312 C 6.113281 -6.574219 5.425781 -6.382812 4.964844 -6.121094 C 4.1875 -5.679688 3.796875 -4.976562 3.796875 -4.007812 Z M 9.929688 -9.128906 C 10.511719 -9.203125 10.902344 -9.449219 11.097656 -9.859375 C 11.210938 -10.085938 11.269531 -10.410156 11.269531 -10.832031 C 11.269531 -11.695312 10.960938 -12.320312 10.347656 -12.710938 C 9.734375 -13.097656 8.851562 -13.292969 7.707031 -13.292969 C 6.386719 -13.292969 5.449219 -12.9375 4.894531 -12.222656 C 4.585938 -11.828125 4.382812 -11.246094 4.289062 -10.464844 L 1.925781 -10.464844 C 1.972656 -12.324219 2.578125 -13.613281 3.734375 -14.339844 C 4.894531 -15.066406 6.238281 -15.433594 7.765625 -15.433594 C 9.539062 -15.433594 10.976562 -15.09375 12.082031 -14.417969 C 13.179688 -13.742188 13.730469 -12.691406 13.730469 -11.269531 L 13.730469 -2.589844 C 13.730469 -2.328125 13.785156 -2.113281 13.890625 -1.957031 C 14 -1.796875 14.226562 -1.714844 14.574219 -1.714844 C 14.6875 -1.714844 14.8125 -1.722656 14.953125 -1.738281 C 15.09375 -1.75 15.242188 -1.773438 15.402344 -1.800781 L 15.402344 0.0703125 C 15.007812 0.183594 14.710938 0.253906 14.503906 0.28125 C 14.296875 0.308594 14.015625 0.324219 13.660156 0.324219 C 12.789062 0.324219 12.152344 0.015625 11.761719 -0.605469 C 11.554688 -0.933594 11.410156 -1.398438 11.324219 -1.996094 C 10.808594 -1.320312 10.066406 -0.734375 9.101562 -0.238281 C 8.136719 0.257812 7.070312 0.507812 5.910156 0.507812 C 4.511719 0.507812 3.367188 0.0820312 2.484375 -0.765625 C 1.597656 -1.613281 1.152344 -2.675781 1.152344 -3.953125 C 1.152344 -5.351562 1.589844 -6.433594 2.460938 -7.203125 C 3.332031 -7.972656 4.476562 -8.445312 5.894531 -8.625 Z M 9.929688 -9.128906 "/>
</g>
<g id="glyph-3-11">
<path d="M 3.363281 -4.726562 C 3.4375 -3.882812 3.648438 -3.234375 3.996094 -2.785156 C 4.632812 -1.96875 5.738281 -1.5625 7.316406 -1.5625 C 8.253906 -1.5625 9.078125 -1.765625 9.789062 -2.171875 C 10.503906 -2.582031 10.859375 -3.210938 10.859375 -4.066406 C 10.859375 -4.710938 10.574219 -5.203125 10 -5.542969 C 9.636719 -5.75 8.914062 -5.988281 7.835938 -6.261719 L 5.824219 -6.765625 C 4.539062 -7.085938 3.59375 -7.441406 2.980469 -7.835938 C 1.894531 -8.519531 1.351562 -9.46875 1.351562 -10.675781 C 1.351562 -12.101562 1.863281 -13.257812 2.890625 -14.136719 C 3.917969 -15.019531 5.296875 -15.460938 7.035156 -15.460938 C 9.304688 -15.460938 10.941406 -14.792969 11.941406 -13.460938 C 12.570312 -12.617188 12.875 -11.707031 12.855469 -10.734375 L 10.464844 -10.734375 C 10.417969 -11.304688 10.21875 -11.824219 9.859375 -12.292969 C 9.277344 -12.960938 8.273438 -13.292969 6.835938 -13.292969 C 5.878906 -13.292969 5.15625 -13.109375 4.664062 -12.746094 C 4.171875 -12.378906 3.925781 -11.894531 3.925781 -11.296875 C 3.925781 -10.640625 4.25 -10.113281 4.894531 -9.71875 C 5.269531 -9.484375 5.824219 -9.28125 6.554688 -9.101562 L 8.230469 -8.695312 C 10.050781 -8.253906 11.269531 -7.824219 11.886719 -7.414062 C 12.871094 -6.765625 13.363281 -5.75 13.363281 -4.359375 C 13.363281 -3.019531 12.855469 -1.863281 11.835938 -0.886719 C 10.820312 0.0898438 9.269531 0.578125 7.1875 0.578125 C 4.945312 0.578125 3.359375 0.0664062 2.425781 -0.949219 C 1.492188 -1.96875 0.992188 -3.226562 0.929688 -4.726562 Z M 3.363281 -4.726562 "/>
</g>
<g id="glyph-3-12">
<path d="M 2.460938 -3.066406 L 5.402344 -3.066406 L 5.402344 0 L 2.460938 0 Z M 2.460938 -3.066406 "/>
</g>
<g id="glyph-4-0">
<path d="M 14.757812 -28.191406 C 19.605469 -28.191406 23.191406 -26.636719 25.519531 -23.519531 C 27.339844 -21.09375 28.246094 -17.984375 28.246094 -14.199219 C 28.246094 -10.101562 27.207031 -6.695312 25.128906 -3.980469 C 22.6875 -0.792969 19.207031 0.804688 14.683594 0.804688 C 10.460938 0.804688 7.144531 -0.589844 4.726562 -3.382812 C 2.570312 -6.070312 1.496094 -9.472656 1.496094 -13.582031 C 1.496094 -17.292969 2.417969 -20.46875 4.257812 -23.109375 C 6.625 -26.496094 10.125 -28.191406 14.757812 -28.191406 Z M 15.132812 -2.523438 C 18.410156 -2.523438 20.777344 -3.695312 22.242188 -6.042969 C 23.707031 -8.390625 24.4375 -11.089844 24.4375 -14.144531 C 24.4375 -17.367188 23.59375 -19.964844 21.90625 -21.933594 C 20.21875 -23.902344 17.910156 -24.886719 14.984375 -24.886719 C 12.144531 -24.886719 9.828125 -23.910156 8.035156 -21.960938 C 6.242188 -20.011719 5.34375 -17.136719 5.34375 -13.339844 C 5.34375 -10.300781 6.113281 -7.738281 7.652344 -5.652344 C 9.1875 -3.566406 11.683594 -2.523438 15.132812 -2.523438 Z M 15.132812 -2.523438 "/>
</g>
<g id="glyph-4-1">
<path d="M 2.203125 -27.539062 L 5.472656 -27.539062 L 5.472656 -17.582031 C 6.207031 -18.539062 7.085938 -19.269531 8.109375 -19.777344 C 9.128906 -20.28125 10.238281 -20.53125 11.433594 -20.53125 C 13.925781 -20.53125 15.945312 -19.675781 17.496094 -17.964844 C 19.046875 -16.25 19.820312 -13.726562 19.820312 -10.386719 C 19.820312 -7.222656 19.054688 -4.597656 17.523438 -2.503906 C 15.992188 -0.410156 13.867188 0.636719 11.152344 0.636719 C 9.632812 0.636719 8.351562 0.269531 7.304688 -0.46875 C 6.683594 -0.902344 6.015625 -1.601562 5.304688 -2.558594 L 5.304688 0 L 2.203125 0 Z M 10.949219 -2.335938 C 12.765625 -2.335938 14.128906 -3.058594 15.03125 -4.503906 C 15.933594 -5.949219 16.382812 -7.851562 16.382812 -10.21875 C 16.382812 -12.324219 15.933594 -14.066406 15.03125 -15.449219 C 14.128906 -16.832031 12.796875 -17.523438 11.042969 -17.523438 C 9.511719 -17.523438 8.167969 -16.957031 7.015625 -15.824219 C 5.863281 -14.691406 5.289062 -12.824219 5.289062 -10.21875 C 5.289062 -8.339844 5.523438 -6.8125 5.996094 -5.640625 C 6.882812 -3.4375 8.53125 -2.335938 10.949219 -2.335938 Z M 10.949219 -2.335938 "/>
</g>
<g id="glyph-4-2">
<path d="M 4.464844 -6.277344 C 4.566406 -5.15625 4.84375 -4.296875 5.304688 -3.699219 C 6.152344 -2.617188 7.621094 -2.074219 9.714844 -2.074219 C 10.960938 -2.074219 12.054688 -2.34375 13.003906 -2.886719 C 13.949219 -3.429688 14.421875 -4.265625 14.421875 -5.398438 C 14.421875 -6.257812 14.042969 -6.914062 13.285156 -7.359375 C 12.796875 -7.632812 11.839844 -7.953125 10.40625 -8.3125 L 7.734375 -8.984375 C 6.027344 -9.410156 4.769531 -9.882812 3.960938 -10.40625 C 2.515625 -11.316406 1.792969 -12.574219 1.792969 -14.179688 C 1.792969 -16.074219 2.476562 -17.605469 3.839844 -18.777344 C 5.203125 -19.945312 7.035156 -20.53125 9.339844 -20.53125 C 12.355469 -20.53125 14.527344 -19.648438 15.863281 -17.878906 C 16.695312 -16.757812 17.101562 -15.550781 17.074219 -14.253906 L 13.898438 -14.253906 C 13.835938 -15.015625 13.570312 -15.707031 13.097656 -16.328125 C 12.324219 -17.210938 10.984375 -17.65625 9.078125 -17.65625 C 7.808594 -17.65625 6.847656 -17.410156 6.191406 -16.925781 C 5.539062 -16.441406 5.210938 -15.800781 5.210938 -15.003906 C 5.210938 -14.128906 5.640625 -13.433594 6.5 -12.910156 C 7 -12.597656 7.734375 -12.324219 8.707031 -12.085938 L 10.929688 -11.546875 C 13.34375 -10.960938 14.964844 -10.394531 15.785156 -9.84375 C 17.09375 -8.984375 17.75 -7.636719 17.75 -5.792969 C 17.75 -4.011719 17.074219 -2.472656 15.722656 -1.175781 C 14.371094 0.117188 12.3125 0.765625 9.546875 0.765625 C 6.570312 0.765625 4.460938 0.0898438 3.222656 -1.261719 C 1.984375 -2.613281 1.320312 -4.285156 1.234375 -6.277344 Z M 4.464844 -6.277344 "/>
</g>
<g id="glyph-4-3">
<path d="M 10.796875 -20.457031 C 12.21875 -20.457031 13.59375 -20.125 14.925781 -19.457031 C 16.257812 -18.792969 17.273438 -17.929688 17.972656 -16.871094 C 18.644531 -15.863281 19.09375 -14.683594 19.316406 -13.339844 C 19.515625 -12.417969 19.617188 -10.949219 19.617188 -8.929688 L 4.949219 -8.929688 C 5.011719 -6.898438 5.492188 -5.273438 6.390625 -4.042969 C 7.285156 -2.816406 8.675781 -2.203125 10.554688 -2.203125 C 12.3125 -2.203125 13.714844 -2.785156 14.757812 -3.941406 C 15.355469 -4.613281 15.78125 -5.394531 16.03125 -6.277344 L 19.335938 -6.277344 C 19.25 -5.542969 18.960938 -4.722656 18.46875 -3.820312 C 17.976562 -2.917969 17.425781 -2.179688 16.8125 -1.605469 C 15.792969 -0.609375 14.527344 0.0625 13.023438 0.410156 C 12.210938 0.609375 11.296875 0.710938 10.273438 0.710938 C 7.785156 0.710938 5.671875 -0.195312 3.941406 -2.007812 C 2.210938 -3.820312 1.34375 -6.359375 1.34375 -9.621094 C 1.34375 -12.835938 2.21875 -15.445312 3.960938 -17.449219 C 5.703125 -19.453125 7.984375 -20.457031 10.796875 -20.457031 Z M 16.160156 -11.601562 C 16.023438 -13.058594 15.707031 -14.222656 15.207031 -15.09375 C 14.285156 -16.714844 12.746094 -17.523438 10.59375 -17.523438 C 9.046875 -17.523438 7.753906 -16.96875 6.707031 -15.851562 C 5.660156 -14.738281 5.105469 -13.320312 5.042969 -11.601562 Z M 16.160156 -11.601562 "/>
</g>
<g id="glyph-4-4">
<path d="M 2.558594 -20.007812 L 5.753906 -20.007812 L 5.753906 -16.550781 C 6.015625 -17.226562 6.65625 -18.042969 7.679688 -19.007812 C 8.699219 -19.972656 9.875 -20.457031 11.210938 -20.457031 C 11.273438 -20.457031 11.378906 -20.449219 11.527344 -20.4375 C 11.675781 -20.425781 11.933594 -20.402344 12.292969 -20.363281 L 12.292969 -16.8125 C 12.09375 -16.851562 11.910156 -16.875 11.742188 -16.890625 C 11.574219 -16.902344 11.390625 -16.90625 11.191406 -16.90625 C 9.496094 -16.90625 8.195312 -16.363281 7.285156 -15.273438 C 6.375 -14.183594 5.921875 -12.929688 5.921875 -11.507812 L 5.921875 0 L 2.558594 0 Z M 2.558594 -20.007812 "/>
</g>
<g id="glyph-4-5">
<path d="M 4.109375 -20.007812 L 9.453125 -3.71875 L 15.039062 -20.007812 L 18.71875 -20.007812 L 11.171875 0 L 7.585938 0 L 0.207031 -20.007812 Z M 4.109375 -20.007812 "/>
</g>
<g id="glyph-5-0">
<path d="M 3.605469 -30.261719 L 25.667969 -30.261719 L 25.667969 -26.554688 L 7.601562 -26.554688 L 7.601562 -17.367188 L 24.308594 -17.367188 L 24.308594 -13.863281 L 7.601562 -13.863281 L 7.601562 -3.605469 L 25.976562 -3.605469 L 25.976562 0 L 3.605469 0 Z M 3.605469 -30.261719 "/>
</g>
<g id="glyph-5-1">
<path d="M 0.617188 -22.0625 L 5.417969 -22.0625 L 10.484375 -14.296875 L 15.617188 -22.0625 L 20.128906 -21.960938 L 12.691406 -11.308594 L 20.457031 0 L 15.71875 0 L 10.238281 -8.28125 L 4.921875 0 L 0.226562 0 L 7.992188 -11.308594 Z M 0.617188 -22.0625 "/>
</g>
<g id="glyph-5-2">
<path d="M 12.03125 -2.492188 C 13.761719 -2.492188 15.199219 -3.21875 16.347656 -4.667969 C 17.492188 -6.117188 18.066406 -8.28125 18.066406 -11.164062 C 18.066406 -12.921875 17.8125 -14.433594 17.304688 -15.699219 C 16.34375 -18.128906 14.585938 -19.34375 12.03125 -19.34375 C 9.460938 -19.34375 7.703125 -18.058594 6.757812 -15.492188 C 6.25 -14.117188 5.996094 -12.375 5.996094 -10.257812 C 5.996094 -8.554688 6.25 -7.109375 6.757812 -5.914062 C 7.71875 -3.632812 9.476562 -2.492188 12.03125 -2.492188 Z M 2.429688 -21.960938 L 6.035156 -21.960938 L 6.035156 -19.035156 C 6.777344 -20.039062 7.589844 -20.8125 8.46875 -21.363281 C 9.71875 -22.1875 11.1875 -22.597656 12.875 -22.597656 C 15.375 -22.597656 17.496094 -21.640625 19.242188 -19.726562 C 20.984375 -17.808594 21.859375 -15.074219 21.859375 -11.515625 C 21.859375 -6.710938 20.601562 -3.277344 18.089844 -1.214844 C 16.496094 0.0898438 14.640625 0.742188 12.527344 0.742188 C 10.863281 0.742188 9.46875 0.378906 8.34375 -0.351562 C 7.683594 -0.761719 6.949219 -1.46875 6.140625 -2.472656 L 6.140625 8.796875 L 2.429688 8.796875 Z M 2.429688 -21.960938 "/>
</g>
<g id="glyph-5-3">
<path d="M 2.824219 -30.261719 L 6.53125 -30.261719 L 6.53125 0 L 2.824219 0 Z M 2.824219 -30.261719 "/>
</g>
<g id="glyph-5-4">
<path d="M 5.5625 -5.871094 C 5.5625 -4.800781 5.953125 -3.957031 6.738281 -3.335938 C 7.519531 -2.71875 8.445312 -2.410156 9.519531 -2.410156 C 10.824219 -2.410156 12.085938 -2.710938 13.308594 -3.316406 C 15.367188 -4.320312 16.398438 -5.960938 16.398438 -8.242188 L 16.398438 -11.226562 C 15.945312 -10.9375 15.363281 -10.699219 14.648438 -10.507812 C 13.933594 -10.316406 13.234375 -10.175781 12.546875 -10.09375 L 10.300781 -9.804688 C 8.953125 -9.628906 7.945312 -9.347656 7.273438 -8.960938 C 6.132812 -8.316406 5.5625 -7.285156 5.5625 -5.871094 Z M 14.542969 -13.371094 C 15.394531 -13.480469 15.964844 -13.835938 16.253906 -14.441406 C 16.417969 -14.769531 16.5 -15.246094 16.5 -15.863281 C 16.5 -17.125 16.050781 -18.042969 15.152344 -18.613281 C 14.253906 -19.183594 12.964844 -19.46875 11.289062 -19.46875 C 9.351562 -19.46875 7.980469 -18.945312 7.167969 -17.902344 C 6.714844 -17.324219 6.421875 -16.46875 6.285156 -15.328125 L 2.824219 -15.328125 C 2.890625 -18.046875 3.773438 -19.9375 5.46875 -21.003906 C 7.164062 -22.066406 9.132812 -22.597656 11.371094 -22.597656 C 13.96875 -22.597656 16.074219 -22.105469 17.695312 -21.117188 C 19.304688 -20.128906 20.105469 -18.589844 20.105469 -16.5 L 20.105469 -3.789062 C 20.105469 -3.40625 20.1875 -3.097656 20.34375 -2.863281 C 20.5 -2.628906 20.835938 -2.511719 21.34375 -2.511719 C 21.507812 -2.511719 21.691406 -2.523438 21.898438 -2.542969 C 22.105469 -2.5625 22.324219 -2.597656 22.558594 -2.636719 L 22.558594 0.101562 C 21.980469 0.265625 21.542969 0.371094 21.238281 0.410156 C 20.9375 0.453125 20.527344 0.472656 20.003906 0.472656 C 18.726562 0.472656 17.800781 0.0195312 17.222656 -0.886719 C 16.921875 -1.367188 16.707031 -2.046875 16.585938 -2.925781 C 15.828125 -1.9375 14.742188 -1.078125 13.328125 -0.351562 C 11.914062 0.378906 10.355469 0.742188 8.652344 0.742188 C 6.605469 0.742188 4.933594 0.121094 3.636719 -1.121094 C 2.339844 -2.363281 1.6875 -3.921875 1.6875 -5.789062 C 1.6875 -7.835938 2.328125 -9.421875 3.605469 -10.546875 C 4.882812 -11.671875 6.558594 -12.367188 8.632812 -12.628906 Z M 14.542969 -13.371094 "/>
</g>
<g id="glyph-5-5">
<path d="M 2.71875 -21.960938 L 6.488281 -21.960938 L 6.488281 0 L 2.71875 0 Z M 2.71875 -30.261719 L 6.488281 -30.261719 L 6.488281 -26.0625 L 2.71875 -26.0625 Z M 2.71875 -30.261719 "/>
</g>
<g id="glyph-5-6">
<path d="M 2.71875 -22.0625 L 6.242188 -22.0625 L 6.242188 -18.933594 C 7.285156 -20.222656 8.390625 -21.152344 9.558594 -21.714844 C 10.726562 -22.277344 12.023438 -22.558594 13.453125 -22.558594 C 16.585938 -22.558594 18.699219 -21.464844 19.796875 -19.28125 C 20.402344 -18.085938 20.703125 -16.378906 20.703125 -14.152344 L 20.703125 0 L 16.933594 0 L 16.933594 -13.90625 C 16.933594 -15.25 16.734375 -16.335938 16.335938 -17.160156 C 15.675781 -18.535156 14.484375 -19.222656 12.753906 -19.222656 C 11.875 -19.222656 11.152344 -19.132812 10.589844 -18.953125 C 9.574219 -18.652344 8.679688 -18.046875 7.910156 -17.140625 C 7.292969 -16.414062 6.890625 -15.660156 6.707031 -14.882812 C 6.519531 -14.109375 6.425781 -13 6.425781 -11.558594 L 6.425781 0 L 2.71875 0 Z M 2.71875 -22.0625 "/>
</g>
</g>
<mask id="mask-0">
<g filter="url(#filter-remove-color)">
<rect x="-64" y="-36" width="768" height="432" fill="rgb(0%, 0%, 0%)" fill-opacity="0.5"/>
</g>
</mask>
<g id="source-5942">
<g fill="rgb(95.686275%, 96.470588%, 97.254902%)" fill-opacity="1">
<use xlink:href="#glyph-0-0" x="26" y="40.800781"/>
<use xlink:href="#glyph-0-1" x="42.4" y="40.800781"/>
<use xlink:href="#glyph-0-2" x="58.8" y="40.800781"/>
<use xlink:href="#glyph-0-3" x="73.6" y="40.800781"/>
<use xlink:href="#glyph-0-4" x="81.2" y="40.800781"/>
<use xlink:href="#glyph-0-5" x="97.6" y="40.800781"/>
<use xlink:href="#glyph-0-6" x="112.4" y="40.800781"/>
<use xlink:href="#glyph-0-7" x="122.8" y="40.800781"/>
<use xlink:href="#glyph-0-8" x="131.6" y="40.800781"/>
<use xlink:href="#glyph-0-3" x="146.4" y="40.800781"/>
<use xlink:href="#glyph-0-9" x="154" y="40.800781"/>
<use xlink:href="#glyph-0-2" x="168.8" y="40.800781"/>
<use xlink:href="#glyph-0-2" x="183.6" y="40.800781"/>
<use xlink:href="#glyph-0-4" x="198.4" y="40.800781"/>
<use xlink:href="#glyph-0-3" x="214.8" y="40.800781"/>
<use xlink:href="#glyph-0-7" x="222.4" y="40.800781"/>
<use xlink:href="#glyph-0-1" x="231.2" y="40.800781"/>
<use xlink:href="#glyph-0-2" x="247.6" y="40.800781"/>
<use xlink:href="#glyph-0-10" x="262.4" y="40.800781"/>
<use xlink:href="#glyph-0-6" x="270" y="40.800781"/>
<use xlink:href="#glyph-0-3" x="280.4" y="40.800781"/>
<use xlink:href="#glyph-0-10" x="288" y="40.800781"/>
<use xlink:href="#glyph-0-11" x="295.6" y="40.800781"/>
<use xlink:href="#glyph-0-2" x="312" y="40.800781"/>
<use xlink:href="#glyph-0-12" x="326.8" y="40.800781"/>
<use xlink:href="#glyph-0-7" x="343.2" y="40.800781"/>
<use xlink:href="#glyph-0-10" x="352" y="40.800781"/>
<use xlink:href="#glyph-0-7" x="359.6" y="40.800781"/>
<use xlink:href="#glyph-0-10" x="368.4" y="40.800781"/>
<use xlink:href="#glyph-0-2" x="376" y="40.800781"/>
<use xlink:href="#glyph-0-8" x="390.8" y="40.800781"/>
</g>
</g>
<clipPath id="clip-0">
<path clip-rule="nonzero" d="M 122 272 L 517 272 L 517 307 L 122 307 Z M 122 272 "/>
</clipPath>
<mask id="mask-1">
<g filter="url(#filter-remove-color)">
<rect x="-64" y="-36" width="768" height="432" fill="rgb(0%, 0%, 0%)" fill-opacity="0.5"/>
</g>
</mask>
<g id="source-5947">
<g fill="rgb(95.686275%, 96.470588%, 97.254902%)" fill-opacity="1">
<use xlink:href="#glyph-1-0" x="121.574219" y="305.464844"/>
<use xlink:href="#glyph-1-1" x="164.273318" y="305.464844"/>
<use xlink:href="#glyph-1-2" x="189.390435" y="305.464844"/>
<use xlink:href="#glyph-1-3" x="214.507552" y="305.464844"/>
<use xlink:href="#glyph-1-4" x="227.066111" y="305.464844"/>
<use xlink:href="#glyph-1-5" x="239.624669" y="305.464844"/>
<use xlink:href="#glyph-1-6" x="264.741786" y="305.464844"/>
<use xlink:href="#glyph-1-4" x="289.858903" y="305.464844"/>
<use xlink:href="#glyph-1-7" x="302.417462" y="305.464844"/>
<use xlink:href="#glyph-1-8" x="335.069714" y="305.464844"/>
<use xlink:href="#glyph-1-4" x="360.186831" y="305.464844"/>
<use xlink:href="#glyph-1-9" x="372.74539" y="305.464844"/>
<use xlink:href="#glyph-1-6" x="397.862507" y="305.464844"/>
<use xlink:href="#glyph-1-3" x="422.979624" y="305.464844"/>
<use xlink:href="#glyph-1-10" x="435.538183" y="305.464844"/>
<use xlink:href="#glyph-1-11" x="445.58503" y="305.464844"/>
<use xlink:href="#glyph-1-8" x="468.190435" y="305.464844"/>
<use xlink:href="#glyph-1-12" x="493.307552" y="305.464844"/>
</g>
</g>
<clipPath id="clip-1">
<path clip-rule="nonzero" d="M 26 21 L 405 21 L 405 47 L 26 47 Z M 26 21 "/>
</clipPath>
<mask id="mask-2">
<g filter="url(#filter-remove-color)">
<rect x="-64" y="-36" width="768" height="432" fill="rgb(0%, 0%, 0%)" fill-opacity="0.5"/>
</g>
</mask>
<g id="source-5952">
<g fill="rgb(95.686275%, 96.470588%, 97.254902%)" fill-opacity="1">
<use xlink:href="#glyph-0-0" x="26" y="40.800781"/>
<use xlink:href="#glyph-0-1" x="42.4" y="40.800781"/>
<use xlink:href="#glyph-0-2" x="58.8" y="40.800781"/>
<use xlink:href="#glyph-0-3" x="73.6" y="40.800781"/>
<use xlink:href="#glyph-0-4" x="81.2" y="40.800781"/>
<use xlink:href="#glyph-0-5" x="97.6" y="40.800781"/>
<use xlink:href="#glyph-0-6" x="112.4" y="40.800781"/>
<use xlink:href="#glyph-0-7" x="122.8" y="40.800781"/>
<use xlink:href="#glyph-0-8" x="131.6" y="40.800781"/>
<use xlink:href="#glyph-0-3" x="146.4" y="40.800781"/>
<use xlink:href="#glyph-0-9" x="154" y="40.800781"/>
<use xlink:href="#glyph-0-2" x="168.8" y="40.800781"/>
<use xlink:href="#glyph-0-2" x="183.6" y="40.800781"/>
<use xlink:href="#glyph-0-4" x="198.4" y="40.800781"/>
<use xlink:href="#glyph-0-3" x="214.8" y="40.800781"/>
<use xlink:href="#glyph-0-7" x="222.4" y="40.800781"/>
<use xlink:href="#glyph-0-1" x="231.2" y="40.800781"/>
<use xlink:href="#glyph-0-2" x="247.6" y="40.800781"/>
<use xlink:href="#glyph-0-10" x="262.4" y="40.800781"/>
<use xlink:href="#glyph-0-6" x="270" y="40.800781"/>
<use xlink:href="#glyph-0-3" x="280.4" y="40.800781"/>
<use xlink:href="#glyph-0-10" x="288" y="40.800781"/>
<use xlink:href="#glyph-0-11" x="295.6" y="40.800781"/>
<use xlink:href="#glyph-0-2" x="312" y="40.800781"/>
<use xlink:href="#glyph-0-12" x="326.8" y="40.800781"/>
<use xlink:href="#glyph-0-7" x="343.2" y="40.800781"/>
<use xlink:href="#glyph-0-10" x="352" y="40.800781"/>
<use xlink:href="#glyph-0-7" x="359.6" y="40.800781"/>
<use xlink:href="#glyph-0-10" x="368.4" y="40.800781"/>
<use xlink:href="#glyph-0-2" x="376" y="40.800781"/>
<use xlink:href="#glyph-0-8" x="390.8" y="40.800781"/>
</g>
</g>
<clipPath id="clip-2">
<path clip-rule="nonzero" d="M 26 62 L 207 62 L 207 112 L 26 112 Z M 26 62 "/>
</clipPath>
<mask id="mask-3">
<g filter="url(#filter-remove-color)">
<rect x="-64" y="-36" width="768" height="432" fill="rgb(0%, 0%, 0%)" fill-opacity="0.5"/>
</g>
</mask>
<g id="source-5957">
<g fill="rgb(95.686275%, 96.470588%, 97.254902%)" fill-opacity="1">
<use xlink:href="#glyph-2-0" x="26" y="72.398438"/>
<use xlink:href="#glyph-2-1" x="34.8" y="72.398438"/>
<use xlink:href="#glyph-2-2" x="42.8" y="72.398438"/>
<use xlink:href="#glyph-2-3" x="50.8" y="72.398438"/>
<use xlink:href="#glyph-2-4" x="54.8" y="72.398438"/>
<use xlink:href="#glyph-2-5" x="62.8" y="72.398438"/>
<use xlink:href="#glyph-2-6" x="70.8" y="72.398438"/>
<use xlink:href="#glyph-2-2" x="78.8" y="72.398438"/>
<use xlink:href="#glyph-2-7" x="86.8" y="72.398438"/>
<use xlink:href="#glyph-2-3" x="90" y="72.398438"/>
<use xlink:href="#glyph-2-8" x="94" y="72.398438"/>
<use xlink:href="#glyph-2-9" x="106" y="72.398438"/>
<use xlink:href="#glyph-2-10" x="114" y="72.398438"/>
<use xlink:href="#glyph-2-2" x="121.2" y="72.398438"/>
<use xlink:href="#glyph-2-11" x="129.2" y="72.398438"/>
<use xlink:href="#glyph-2-12" x="136.4" y="72.398438"/>
<use xlink:href="#glyph-2-3" x="140.4" y="72.398438"/>
<use xlink:href="#glyph-2-13" x="144.4" y="72.398438"/>
<use xlink:href="#glyph-2-14" x="148.4" y="72.398438"/>
<use xlink:href="#glyph-2-11" x="152.4" y="72.398438"/>
<use xlink:href="#glyph-2-3" x="159.6" y="72.398438"/>
<use xlink:href="#glyph-2-6" x="163.6" y="72.398438"/>
<use xlink:href="#glyph-2-5" x="171.6" y="72.398438"/>
<use xlink:href="#glyph-2-8" x="179.6" y="72.398438"/>
<use xlink:href="#glyph-2-2" x="191.6" y="72.398438"/>
<use xlink:href="#glyph-2-15" x="199.6" y="72.398438"/>
</g>
<g fill="rgb(95.686275%, 96.470588%, 97.254902%)" fill-opacity="1">
<use xlink:href="#glyph-2-16" x="26" y="90.160156"/>
<use xlink:href="#glyph-2-1" x="33.2" y="90.160156"/>
<use xlink:href="#glyph-2-17" x="41.2" y="90.160156"/>
<use xlink:href="#glyph-2-7" x="44.4" y="90.160156"/>
<use xlink:href="#glyph-2-15" x="47.6" y="90.160156"/>
<use xlink:href="#glyph-2-18" x="55.6" y="90.160156"/>
<use xlink:href="#glyph-2-2" x="60.4" y="90.160156"/>
<use xlink:href="#glyph-2-6" x="68.4" y="90.160156"/>
<use xlink:href="#glyph-2-3" x="76.4" y="90.160156"/>
<use xlink:href="#glyph-2-18" x="80.4" y="90.160156"/>
<use xlink:href="#glyph-2-2" x="85.2" y="90.160156"/>
<use xlink:href="#glyph-2-5" x="93.2" y="90.160156"/>
<use xlink:href="#glyph-2-18" x="101.2" y="90.160156"/>
<use xlink:href="#glyph-2-18" x="106" y="90.160156"/>
<use xlink:href="#glyph-2-5" x="110.8" y="90.160156"/>
<use xlink:href="#glyph-2-6" x="118.8" y="90.160156"/>
<use xlink:href="#glyph-2-19" x="126.8" y="90.160156"/>
<use xlink:href="#glyph-2-2" x="134.8" y="90.160156"/>
</g>
<g fill="rgb(95.686275%, 96.470588%, 97.254902%)" fill-opacity="1">
<use xlink:href="#glyph-2-17" x="26" y="107.921875"/>
<use xlink:href="#glyph-2-6" x="29.2" y="107.921875"/>
<use xlink:href="#glyph-2-15" x="37.2" y="107.921875"/>
<use xlink:href="#glyph-2-2" x="45.2" y="107.921875"/>
<use xlink:href="#glyph-2-4" x="53.2" y="107.921875"/>
<use xlink:href="#glyph-2-2" x="61.2" y="107.921875"/>
<use xlink:href="#glyph-2-6" x="69.2" y="107.921875"/>
<use xlink:href="#glyph-2-15" x="77.2" y="107.921875"/>
<use xlink:href="#glyph-2-2" x="85.2" y="107.921875"/>
<use xlink:href="#glyph-2-6" x="93.2" y="107.921875"/>
<use xlink:href="#glyph-2-14" x="101.2" y="107.921875"/>
<use xlink:href="#glyph-2-7" x="105.2" y="107.921875"/>
<use xlink:href="#glyph-2-20" x="108.4" y="107.921875"/>
<use xlink:href="#glyph-2-12" x="114.8" y="107.921875"/>
</g>
</g>
<clipPath id="clip-3">
<path clip-rule="nonzero" d="M 317 246 L 554 246 L 554 268 L 317 268 Z M 317 246 "/>
</clipPath>
<mask id="mask-4">
<g filter="url(#filter-remove-color)">
<rect x="-64" y="-36" width="768" height="432" fill="rgb(0%, 0%, 0%)" fill-opacity="0.5"/>
</g>
</mask>
<g id="source-5962">
<g fill="rgb(95.686275%, 96.470588%, 97.254902%)" fill-opacity="1">
<use xlink:href="#glyph-3-0" x="316.300781" y="267.421875"/>
<use xlink:href="#glyph-3-1" x="337.107808" y="267.421875"/>
<use xlink:href="#glyph-3-2" x="353.113214" y="267.421875"/>
<use xlink:href="#glyph-3-2" x="369.118619" y="267.421875"/>
<use xlink:href="#glyph-3-3" x="385.124024" y="267.421875"/>
<use xlink:href="#glyph-3-4" x="401.12943" y="267.421875"/>
<use xlink:href="#glyph-3-5" x="415.534295" y="267.421875"/>
<use xlink:href="#glyph-3-6" x="423.536997" y="267.421875"/>
<use xlink:href="#glyph-3-5" x="431.5397" y="267.421875"/>
<use xlink:href="#glyph-3-7" x="439.542403" y="267.421875"/>
<use xlink:href="#glyph-3-3" x="455.547808" y="267.421875"/>
<use xlink:href="#glyph-3-6" x="471.553214" y="267.421875"/>
<use xlink:href="#glyph-3-8" x="479.555916" y="267.421875"/>
<use xlink:href="#glyph-3-9" x="485.958079" y="267.421875"/>
<use xlink:href="#glyph-3-3" x="501.963484" y="267.421875"/>
<use xlink:href="#glyph-3-10" x="517.968889" y="267.421875"/>
<use xlink:href="#glyph-3-11" x="533.974295" y="267.421875"/>
<use xlink:href="#glyph-3-12" x="548.37916" y="267.421875"/>
</g>
</g>
</defs>
<rect x="-64" y="-36" width="768" height="432" fill="rgb(7.058824%, 9.019608%, 11.764706%)" fill-opacity="1"/>
<rect x="-64" y="-36" width="768" height="432" fill="rgb(7.058824%, 9.019608%, 11.764706%)" fill-opacity="1"/>
<g mask="url(#mask-0)">
<use xlink:href="#source-5942"/>
</g>
<g clip-path="url(#clip-0)">
<g mask="url(#mask-1)">
<use xlink:href="#source-5947"/>
</g>
</g>
<g clip-path="url(#clip-1)">
<g mask="url(#mask-2)">
<use xlink:href="#source-5952"/>
</g>
</g>
<g clip-path="url(#clip-2)">
<g mask="url(#mask-3)">
<use xlink:href="#source-5957"/>
</g>
</g>
<g clip-path="url(#clip-3)">
<g mask="url(#mask-4)">
<use xlink:href="#source-5962"/>
</g>
</g>
<g fill="rgb(95.686275%, 96.470588%, 97.254902%)" fill-opacity="1">
<use xlink:href="#glyph-4-0" x="277.367188" y="155.351562"/>
<use xlink:href="#glyph-4-1" x="307.126589" y="155.351562"/>
<use xlink:href="#glyph-4-2" x="328.383305" y="155.351562"/>
<use xlink:href="#glyph-4-3" x="347.514349" y="155.351562"/>
<use xlink:href="#glyph-4-4" x="368.771065" y="155.351562"/>
<use xlink:href="#glyph-4-5" x="381.525094" y="155.351562"/>
<use xlink:href="#glyph-4-3" x="400.656138" y="155.351562"/>
</g>
<g fill="rgb(95.686275%, 96.470588%, 97.254902%)" fill-opacity="1">
<use xlink:href="#glyph-5-0" x="280.492188" y="214.207031"/>
<use xlink:href="#glyph-5-1" x="308.619993" y="214.207031"/>
<use xlink:href="#glyph-5-2" x="329.715847" y="214.207031"/>
<use xlink:href="#glyph-5-3" x="353.155685" y="214.207031"/>
<use xlink:href="#glyph-5-4" x="362.53162" y="214.207031"/>
<use xlink:href="#glyph-5-5" x="385.971458" y="214.207031"/>
<use xlink:href="#glyph-5-6" x="395.347393" y="214.207031"/>
</g>
</svg>
